<?xml version="1.0" encoding="utf-8"?>
<!-- Generator: Adobe Illustrator 13.0.2, SVG Export Plug-In . SVG Version: 6.00 Build 14948)  -->
<!DOCTYPE svg PUBLIC "-//W3C//DTD SVG 1.0//EN" "http://www.w3.org/TR/2001/REC-SVG-20010904/DTD/svg10.dtd">
<svg version="1.0" id="Ebene_1" xmlns="http://www.w3.org/2000/svg" xmlns:xlink="http://www.w3.org/1999/xlink" x="0px" y="0px"
	 width="566px" height="566px" viewBox="0 0 566 566" enable-background="new 0 0 566 566" xml:space="preserve">
<path fill="#FFFFFF" d="M0,283c0,156.049,126.954,283,282.998,283C439.046,566,566,439.049,566,283C566,126.956,439.046,0,282.998,0
	C126.954,0,0,126.956,0,283"/>
<path d="M7.6,282.998C7.6,131.144,131.144,7.6,282.998,7.6c151.853,0,275.401,123.544,275.401,275.398S434.851,558.4,282.998,558.4
	C131.144,558.4,7.6,434.853,7.6,282.998"/>
<path fill="#FFFFFF" d="M90.554,283.002c0,106.112,86.333,192.444,192.445,192.444c106.119,0,192.447-86.332,192.447-192.444
	c0-106.116-86.328-192.448-192.447-192.448C176.887,90.554,90.554,176.886,90.554,283.002"/>
<path fill="#C80C3E" d="M98.151,283.002c0-101.927,82.922-184.852,184.845-184.852c101.928,0,184.854,82.925,184.854,184.852
	c0,101.926-82.926,184.847-184.854,184.847C181.073,467.849,98.151,384.928,98.151,283.002"/>
<g>
	<path fill="#FFFFFF" d="M74.333,222.465c-0.854-0.219-1.59-0.109-2.254,0.336c-0.66,0.45-1.19,1.427-1.569,2.891l-1.741,6.734
		l-9.793-2.532l1.611-6.226l0.298,0.075c1.83,0.476,2.566,0.388,2.869,0.231c0.993-0.5,1.59-1.156,1.809-2.011
		c0.219-0.858,0.114-1.594-0.336-2.25c-0.446-0.669-1.422-1.199-2.891-1.578l-6.209-1.603c-1.468-0.383-2.574-0.392-3.29-0.025
		c-0.715,0.366-1.165,0.955-1.388,1.809c-0.219,0.842-0.017,1.726,0.61,2.643c0.185,0.273,0.782,0.702,2.616,1.182l0.304,0.08
		l-1.612,6.226l-9.793-2.532l4.32-16.688l3.626,0.942c1.473,0.383,2.579,0.387,3.294,0.025c0.711-0.362,1.165-0.955,1.388-1.805
		c0.067-0.286,0.105-0.56,0.105-0.816c0-0.521-0.144-1.001-0.442-1.438c-0.454-0.665-1.426-1.195-2.894-1.578
		c0,0-8.648-2.233-9.212-2.376c-0.147,0.58-7.589,29.228-7.589,29.228c-0.193,0.748-0.286,1.409-0.286,1.964
		c0,0.534,0.084,0.977,0.261,1.329c0.361,0.707,0.955,1.161,1.809,1.385c0.854,0.219,1.595,0.109,2.255-0.337
		c0.66-0.45,1.19-1.422,1.569-2.895l0.349-1.333l25.19,6.516l-0.346,1.33c-0.378,1.472-0.387,2.582-0.024,3.293
		c0.361,0.711,0.95,1.166,1.809,1.385c0.85,0.223,1.59,0.113,2.25-0.337c0.665-0.446,1.195-1.422,1.573-2.89l3.538-13.676
		c0.379-1.469,0.387-2.574,0.021-3.29C75.779,223.138,75.19,222.684,74.333,222.465"/>
	<path fill="#FFFFFF" d="M92.296,170.252c-0.72-0.357-1.46-0.399-2.26-0.13c-0.799,0.277-1.354,0.757-1.699,1.451
		c-0.197,0.399-0.286,0.773-0.273,1.152c0.013,0.399,0.168,1.043,0.467,1.905c0.539,1.515,0.762,2.827,0.673,3.899
		c-0.146,1.813-0.77,3.841-1.842,6.016c-1.805,3.66-4.211,6.087-7.16,7.21c-2.948,1.128-5.902,0.98-8.783-0.438l-3.791-1.867
		c-2.397-1.19-4.215-2.806-5.405-4.8c-1.178-1.994-1.8-3.958-1.843-5.83c-0.042-1.872,0.379-3.719,1.254-5.494
		c0.707-1.431,1.679-2.734,2.895-3.879c1.229-1.169,2.498-1.943,3.773-2.309c0.686-0.194,1.501-0.156,2.414,0.117
		c1.232,0.345,2.162,0.408,2.764,0.177c0.597-0.223,1.055-0.673,1.401-1.371c0.378-0.77,0.416-1.506,0.113-2.251
		c-0.299-0.748-1.123-1.459-2.444-2.111l-4.935-2.432c-1.32-0.656-2.381-0.871-3.146-0.647c-0.77,0.227-1.333,0.711-1.716,1.489
		c-0.215,0.433-0.295,0.908-0.244,1.4c0.051,0.509,0.244,1.061,0.581,1.637l0.151,0.269l-0.261,0.156
		c-1.422,0.833-2.692,1.88-3.786,3.104c-1.099,1.236-2.065,2.692-2.873,4.324c-1.342,2.722-1.928,5.679-1.738,8.792
		c0.189,3.108,1.241,6.016,3.122,8.645c1.889,2.642,4.35,4.724,7.311,6.184l3.942,1.943c2.831,1.389,5.85,1.923,8.994,1.573
		c3.15-0.349,5.847-1.346,8.026-2.974c2.722-2.011,4.942-4.741,6.608-8.106c1.417-2.882,2.233-5.81,2.414-8.691
		c0.139-2.124-0.164-4.089-0.896-5.834C93.62,171.371,93.015,170.605,92.296,170.252"/>
	<path fill="#FFFFFF" d="M156.113,103.103c-0.799-0.017-1.792,0.476-2.944,1.46l-0.235,0.201l-16.878-19.809l0.235-0.198
		c1.157-0.988,1.801-1.889,1.914-2.679c0.109-0.796-0.113-1.507-0.686-2.171c-0.567-0.673-1.236-1.01-2.031-1.022
		c-0.808-0.013-1.796,0.479-2.953,1.464c0,0-5.595,4.771-5.886,5.015c0.109,0.374,6.104,20.957,6.104,20.957
		s-19.333-9.208-19.687-9.381c-0.295,0.248-5.919,5.044-5.919,5.044c-1.157,0.98-1.796,1.88-1.914,2.68
		c-0.017,0.126-0.025,0.257-0.025,0.387c0,0.636,0.231,1.225,0.711,1.784c0.572,0.669,1.237,1.001,2.036,1.014
		c0.8,0.017,1.792-0.472,2.949-1.46l0.235-0.202l16.873,19.805l-0.231,0.202c-1.161,0.984-1.8,1.889-1.914,2.684
		c-0.113,0.791,0.114,1.502,0.686,2.171c0.568,0.668,1.237,1.001,2.032,1.018c0.799,0.017,1.792-0.476,2.953-1.464l6.684-5.695
		c1.152-0.984,1.8-1.885,1.909-2.684c0.114-0.787-0.104-1.498-0.682-2.171c-0.571-0.669-1.236-1.001-2.04-1.014
		c-0.799-0.017-1.792,0.471-2.944,1.46l-2.044,1.741l-12.725-14.942l0.365-0.475c0,0,15.931,7.589,16.28,7.753
		c0.277-0.228,3.697-3.147,3.967-3.378c-0.105-0.375-5.048-17.336-5.048-17.336l0.53-0.282l12.729,14.938l-2.04,1.741
		c-1.157,0.984-1.796,1.889-1.914,2.684c-0.113,0.787,0.113,1.498,0.686,2.171s1.236,1.001,2.036,1.014
		c0.799,0.021,1.788-0.471,2.953-1.46l6.679-5.695c1.157-0.984,1.801-1.885,1.914-2.68c0.113-0.791-0.109-1.502-0.682-2.171
		C157.582,103.447,156.917,103.115,156.113,103.103"/>
	<path fill="#FFFFFF" d="M188.892,84.526c-0.782-0.173-1.855,0.109-3.185,0.837l-5.99,3.289l-12.532-22.8l5.995-3.289
		c1.329-0.732,2.14-1.485,2.41-2.238c0.269-0.753,0.197-1.493-0.228-2.268c-0.425-0.773-1.01-1.236-1.788-1.409
		c-0.786-0.177-1.859,0.109-3.188,0.837l-17.057,9.373c-1.33,0.731-2.146,1.484-2.419,2.246c-0.266,0.749-0.193,1.485,0.235,2.259
		c0.425,0.77,1.01,1.232,1.788,1.409c0.782,0.177,1.854-0.104,3.179-0.841l5.999-3.286l12.527,22.801l-5.994,3.289
		c-1.329,0.732-2.142,1.489-2.41,2.246c-0.273,0.745-0.193,1.485,0.227,2.259c0.43,0.778,1.014,1.237,1.792,1.409
		c0.778,0.177,1.852-0.101,3.185-0.832l17.062-9.381c1.329-0.729,2.142-1.481,2.406-2.234c0.273-0.748,0.198-1.489-0.227-2.267
		C190.259,85.165,189.67,84.702,188.892,84.526"/>
	<path fill="#FFFFFF" d="M225.25,65.311c-0.404,1.737-1.309,3.356-2.688,4.816c-1.068,1.131-2.882,2.091-5.389,2.86l-6.907,2.12
		l-7.631-24.878l6.845-2.1c2.242-0.689,4.282-0.824,6.061-0.407c1.771,0.425,3.646,1.636,5.561,3.613
		c1.225,1.271,2.163,2.928,2.772,4.926l0.9,2.932C225.489,61.516,225.649,63.577,225.25,65.311 M229.464,54.73
		c-0.64-2.099-1.438-3.828-2.36-5.141c-0.925-1.308-2.103-2.574-3.504-3.761c-1.396-1.187-2.68-2.082-3.819-2.658
		c-1.477-0.762-3.298-1.225-5.423-1.367c-2.12-0.144-4.198,0.093-6.183,0.698l-13.074,3.979c-1.451,0.45-2.402,1.022-2.823,1.703
		c-0.412,0.682-0.492,1.422-0.231,2.268c0.257,0.837,0.736,1.409,1.464,1.742c0.731,0.332,1.838,0.273,3.289-0.173l0.295-0.089
		l7.631,24.87l-0.295,0.093c-1.447,0.441-2.397,1.018-2.818,1.699c-0.261,0.421-0.383,0.862-0.383,1.338
		c0,0.29,0.051,0.602,0.151,0.93c0.257,0.845,0.736,1.413,1.46,1.741c0.728,0.332,1.834,0.273,3.289-0.168l12.548-3.857
		c3.168-0.968,5.633-2.234,7.337-3.77c1.072-0.968,2.137-2.317,3.176-4.005c1.031-1.674,1.691-3.655,1.961-5.894
		c0.265-2.237,0.008-4.669-0.783-7.227L229.464,54.73z"/>
	<path fill="#FFFFFF" d="M275.426,30.753c-0.598,0.055-31.874,2.97-32.476,3.028c0.06,0.585,1.145,12.225,1.145,12.225
		c0.139,1.511,0.505,2.558,1.09,3.104c0.58,0.543,1.291,0.766,2.17,0.686c0.88-0.075,1.531-0.429,2.007-1.077
		c0.472-0.651,0.644-1.745,0.501-3.256l-0.606-6.452l7.589-0.707l2.414,25.904l-4.56,0.429c-1.514,0.135-2.561,0.505-3.108,1.094
		c-0.544,0.581-0.771,1.287-0.687,2.167c0.08,0.879,0.434,1.531,1.077,2.002c0.644,0.476,1.742,0.647,3.255,0.505l15.01-1.4
		c1.51-0.144,2.557-0.51,3.104-1.094c0.547-0.581,0.774-1.292,0.69-2.171c-0.08-0.875-0.434-1.531-1.078-2.002
		c-0.651-0.476-1.745-0.645-3.259-0.501l-4.678,0.434l-2.414-25.904l7.584-0.707l0.602,6.453c0.144,1.51,0.509,2.558,1.098,3.104
		c0.581,0.542,1.288,0.773,2.171,0.689c0.879-0.08,1.53-0.434,2.002-1.077c0.366-0.5,0.547-1.27,0.547-2.288
		c0-0.299-0.013-0.622-0.046-0.968C276.57,42.973,275.484,31.338,275.426,30.753"/>
	<path fill="#FFFFFF" d="M326.409,34.4l-17.933-1.969c-1.506-0.164-2.604-0.013-3.265,0.454c-0.656,0.458-1.019,1.11-1.111,1.985
		c-0.097,0.879,0.122,1.59,0.656,2.179c0.539,0.594,1.574,0.977,3.089,1.141l8.098,0.888l-2.104,19.161
		c-0.159,1.468-0.315,2.376-0.467,2.776c-0.286,0.715-0.795,1.421-1.506,2.099c-0.719,0.682-1.737,1.229-3.028,1.624
		c-1.292,0.399-2.528,0.534-3.674,0.408c-2.132-0.231-4.651-1.225-7.479-2.958l-0.168-0.101l0.715-6.528
		c0.16-1.473,0-2.554-0.467-3.219c-0.467-0.656-1.102-1.018-1.956-1.11c-0.871-0.097-1.586,0.122-2.183,0.66
		c-0.606,0.539-0.989,1.553-1.153,3.017c0,0-1.089,10.003-1.131,10.386c5.346,3.345,9.717,5.229,12.972,5.587
		c2.542,0.281,5.074-0.097,7.526-1.115c2.444-1.014,4.422-2.57,5.881-4.623c0.935-1.313,1.54-3.188,1.805-5.586l2.171-19.847
		l4.085,0.445c1.51,0.164,2.607,0.013,3.264-0.445c0.652-0.463,1.014-1.111,1.106-1.99c0.102-0.87-0.113-1.581-0.651-2.183
		C328.963,34.946,327.924,34.564,326.409,34.4"/>
	<path fill="#FFFFFF" d="M376.771,49.442c-0.408-0.689-1.376-1.282-2.865-1.771l-7.349-2.381c-1.464-0.476-2.579-0.551-3.319-0.24
		c-0.731,0.324-1.216,0.888-1.489,1.725c-0.273,0.842-0.21,1.582,0.198,2.268c0.408,0.694,1.358,1.283,2.822,1.754l0.551,0.186
		l-9.523,7.37l-3.331-11.366l0.387-0.025c1.771-0.126,2.827-0.782,3.23-2.023c0.27-0.837,0.198-1.577-0.228-2.271
		c-0.42-0.698-1.362-1.287-2.793-1.754l-5.658-1.834c-1.494-0.48-2.625-0.564-3.357-0.249c-0.73,0.32-1.215,0.884-1.492,1.717
		c-0.27,0.846-0.206,1.586,0.197,2.271c0.408,0.689,1.371,1.283,2.868,1.771l0.156,0.051l5.406,18.563l-3.001,9.247l-0.096,0.294
		l-4.473-1.447c-1.445-0.476-2.548-0.547-3.284-0.231c-0.731,0.32-1.22,0.88-1.489,1.721c-0.277,0.842-0.214,1.582,0.198,2.271
		c0.408,0.694,1.346,1.279,2.789,1.742l14.454,4.689c1.446,0.468,2.549,0.547,3.28,0.228c0.732-0.319,1.225-0.883,1.494-1.725
		c0.273-0.833,0.206-1.577-0.198-2.263c-0.408-0.69-1.346-1.283-2.789-1.75l-4.472-1.447l3.097-9.541l15.266-11.854l0.155,0.051
		c1.493,0.479,2.625,0.563,3.361,0.244s1.22-0.884,1.493-1.717C377.238,50.877,377.175,50.137,376.771,49.442"/>
	<path fill="#FFFFFF" d="M409.73,89.784c-0.771-0.441-1.507-0.525-2.264-0.27c-0.757,0.261-1.522,1.057-2.275,2.373l-3.219,5.633
		l-12.696-7.253l12.902-22.594l3.567,2.036c1.317,0.753,2.386,1.052,3.172,0.892c0.778-0.164,1.376-0.618,1.809-1.384
		c0.442-0.766,0.526-1.502,0.27-2.255c-0.261-0.766-1.06-1.531-2.381-2.284l-12.161-6.944c-1.321-0.749-2.386-1.052-3.172-0.888
		c-0.783,0.164-1.377,0.618-1.81,1.38c-0.442,0.766-0.526,1.506-0.27,2.263c0.261,0.757,1.056,1.522,2.382,2.275l3.559,2.041
		L384.401,87.13l-0.156,0.265l-3.566-2.031c-1.32-0.758-2.385-1.056-3.171-0.892c-0.774,0.164-1.372,0.613-1.805,1.384
		c-0.278,0.479-0.413,0.95-0.413,1.422c0,0.273,0.047,0.555,0.14,0.833c0.261,0.766,1.06,1.531,2.381,2.279
		c0,0,25.799,14.731,26.324,15.035c0.291-0.514,6.083-10.664,6.083-10.664c0.627-1.085,0.935-2.003,0.935-2.726
		c0-0.156-0.018-0.304-0.043-0.442C410.945,90.811,410.496,90.218,409.73,89.784"/>
	<path fill="#FFFFFF" d="M446.201,119.462c-0.66-0.58-1.371-0.812-2.162-0.715c-0.799,0.101-1.708,0.724-2.709,1.872l-4.282,4.858
		l-10.977-9.667l17.202-19.522l3.079,2.713c1.141,1.005,2.125,1.51,2.928,1.51c0.795,0,1.469-0.319,2.053-0.984
		c0.585-0.66,0.816-1.367,0.716-2.162c-0.097-0.791-0.728-1.708-1.868-2.709l-10.508-9.259c-1.136-1.001-2.12-1.515-2.924-1.515
		c-0.796,0.005-1.468,0.328-2.054,0.984c-0.585,0.665-0.82,1.372-0.715,2.163c0.092,0.799,0.724,1.712,1.863,2.709l3.08,2.722
		l-16.994,19.291l-0.207,0.228l-3.079-2.714c-1.14-1.001-2.124-1.514-2.923-1.514c-0.804,0.004-1.473,0.328-2.058,0.984
		c-0.492,0.567-0.74,1.165-0.74,1.817c0,0.113,0.009,0.23,0.021,0.345c0.101,0.795,0.731,1.708,1.871,2.709
		c0,0,22.291,19.645,22.75,20.044c0.383-0.438,8.11-9.208,8.11-9.208c1.001-1.14,1.51-2.124,1.51-2.924
		C447.186,120.72,446.861,120.047,446.201,119.462"/>
	<path fill="#FFFFFF" d="M463.75,139.897l14.598-3.892l-7.774,12.944L463.75,139.897 M469.977,166.289
		c0-0.37-0.236-1.098-1.313-2.52l-0.127-0.168c0,0,17.425-29.098,17.636-29.45c-0.24-0.324-8.137-10.803-8.137-10.803
		c-0.904-1.199-1.763-1.889-2.545-2.053c-0.778-0.155-1.502,0.025-2.209,0.556c-0.706,0.529-1.076,1.178-1.14,1.973
		s0.361,1.805,1.267,3.008l2.848,3.781l-26.938,7.159l-0.202,0.055l-0.122-0.168c-0.908-1.194-1.767-1.889-2.549-2.049
		c-0.782-0.159-1.506,0.021-2.208,0.552c-0.707,0.529-1.077,1.178-1.141,1.973c-0.063,0.799,0.362,1.809,1.271,3.016l5.073,6.73
		c0.926,1.225,1.792,1.927,2.57,2.083c0.782,0.159,1.51-0.018,2.208-0.547c0.703-0.534,1.077-1.178,1.141-1.974
		c0.063-0.799-0.37-1.825-1.292-3.041l-1.203-1.603l4.851-1.291l9.649,12.8l-2.583,4.304l-1.208-1.599
		c-0.911-1.211-1.77-1.905-2.557-2.065c-0.782-0.159-1.506,0.021-2.208,0.556c-0.707,0.53-1.077,1.169-1.14,1.969
		c-0.067,0.795,0.365,1.817,1.282,3.033l5.085,6.743c0.9,1.203,1.759,1.893,2.545,2.057c0.783,0.16,1.506-0.021,2.213-0.556
		c0.703-0.525,1.09-1.32,1.183-2.414C469.977,166.323,469.977,166.307,469.977,166.289z"/>
	<path fill="#FFFFFF" d="M511.777,191.13c0.652,1.375,1.358,2.233,2.095,2.549c0.728,0.312,1.473,0.282,2.268-0.097
		c0.804-0.379,1.296-0.93,1.519-1.695c0.219-0.778,0.004-1.863-0.647-3.23l-3.757-7.942c-0.644-1.367-1.351-2.226-2.087-2.545
		c-0.731-0.315-1.48-0.282-2.275,0.097c-0.804,0.379-1.296,0.934-1.515,1.695c-0.227,0.77-0.013,1.855,0.64,3.235l1.148,2.423
		l-18.87,8.931c0,0,16.653-26.493,16.83-26.779c-0.139-0.291-3.113-6.579-3.113-6.579c-0.65-1.376-1.354-2.229-2.09-2.55
		c-0.731-0.307-1.48-0.277-2.271,0.097c-0.799,0.379-1.295,0.935-1.519,1.695c-0.223,0.774-0.004,1.864,0.648,3.235l0.584,1.241
		l-23.229,11.004l-0.282,0.131l-0.135-0.278c-0.651-1.375-1.354-2.233-2.09-2.545c-0.741-0.315-1.481-0.286-2.276,0.093
		c-0.799,0.379-1.291,0.934-1.519,1.699c-0.219,0.771-0.004,1.859,0.648,3.235l3.76,7.938c0.652,1.372,1.355,2.226,2.091,2.541
		c0.732,0.319,1.473,0.29,2.271-0.097c0.8-0.374,1.292-0.93,1.516-1.695c0.223-0.77,0.009-1.859-0.644-3.227l-1.149-2.432
		l18.956-8.968c0,0-16.709,26.59-16.886,26.871c0.131,0.278,2.268,4.796,2.499,5.288c0.547-0.261,28.747-13.612,28.747-13.612
		L511.777,191.13"/>
	<path fill="#FFFFFF" d="M521.891,229.805c-0.526,1.75-1.848,3.542-3.934,5.33c-1.351,1.152-3.063,1.985-5.09,2.47l-2.987,0.724
		c-2.359,0.576-4.421,0.609-6.129,0.104c-1.708-0.509-3.271-1.51-4.639-2.978c-1.061-1.132-1.91-3-2.532-5.553l-1.695-7.021
		l25.293-6.116l1.68,6.966C522.408,226.015,522.42,228.06,521.891,229.805 M524.369,209.479c-0.354-1.477-0.867-2.456-1.523-2.924
		c-0.66-0.454-1.397-0.576-2.251-0.365c-0.858,0.206-1.456,0.651-1.83,1.354c-0.37,0.706-0.379,1.817-0.021,3.294l0.072,0.303
		l-24.991,6.04l-0.303,0.067l-0.071-0.298c-0.354-1.473-0.866-2.453-1.527-2.916c-0.66-0.462-1.393-0.58-2.246-0.37
		c-0.862,0.206-1.46,0.652-1.825,1.351c-0.379,0.707-0.383,1.817-0.03,3.298l3.084,12.759c0.782,3.223,1.897,5.763,3.314,7.547
		c0.904,1.127,2.188,2.275,3.808,3.416c1.615,1.131,3.553,1.909,5.771,2.309c2.212,0.408,4.656,0.291,7.256-0.336l3.004-0.728
		c2.137-0.514,3.912-1.203,5.271-2.045c1.367-0.846,2.697-1.943,3.971-3.269c1.268-1.32,2.239-2.549,2.887-3.651
		c0.846-1.435,1.414-3.227,1.688-5.33c0.273-2.107,0.164-4.202-0.32-6.213L524.369,209.479z"/>
	<path fill="#FFFFFF" d="M207.582,486.089c-1.393-0.059-2.356,0.072-2.874,0.383c-0.505,0.303-0.879,0.842-1.114,1.595
		c-0.266,0.841-0.231,1.615,0.113,2.359c0.337,0.736,0.842,1.203,1.548,1.427c0.417,0.13,1.099,0.214,2.032,0.252l6.382,0.303
		l-8.221,25.977l-0.092,0.29l-6.521-2.062c-1.447-0.458-2.554-0.525-3.285-0.202c-0.732,0.328-1.216,0.892-1.481,1.729
		c-0.269,0.841-0.197,1.581,0.215,2.267c0.408,0.69,1.354,1.271,2.806,1.729l18.555,5.872c1.447,0.463,2.554,0.526,3.286,0.202
		c0.736-0.324,1.216-0.892,1.484-1.729c0.102-0.328,0.156-0.644,0.156-0.947c0-0.467-0.122-0.899-0.375-1.32
		c-0.412-0.69-1.354-1.271-2.802-1.725l-6.515-2.065c0,0,10.411-32.888,10.646-33.632
		C220.773,486.75,207.582,486.089,207.582,486.089"/>
	<path fill="#FFFFFF" d="M267.673,509.798c-2.945,4.85-5.974,7.146-9.003,6.831c-1.745-0.181-3.23-1.127-4.412-2.818
		c-0.963-1.375-1.451-3.041-1.451-4.964c0-0.416,0.021-0.846,0.067-1.287c0.248-2.372,1.118-4.236,2.594-5.54
		c1.485-1.316,3.21-1.88,5.111-1.683c1.813,0.186,3.374,1.014,4.645,2.457c1.258,1.426,2.099,3.714,2.49,6.806l0.013,0.105
		L267.673,509.798 M268.884,498.175c-2.104-2.078-4.724-3.29-7.778-3.609c-4.27-0.438-7.806,0.976-10.512,4.211
		c-1.989,2.368-3.167,5.141-3.487,8.249c-0.412,3.992,0.514,7.5,2.756,10.44c2.229,2.933,5.065,4.599,8.421,4.947
		c1.431,0.151,2.844,0.013,4.198-0.403c1.367-0.425,2.928-1.241,4.648-2.424l0.736-0.504l-0.266,0.85
		c-0.997,3.185-3.028,5.801-6.045,7.765c-3.012,1.965-6.209,2.789-9.501,2.449c-0.943-0.098-1.831-0.408-2.635-0.918
		c-0.563-0.345-1.072-0.542-1.514-0.584c-0.82-0.093-1.523,0.109-2.142,0.609c-0.622,0.497-0.959,1.145-1.047,1.974
		c-0.105,1.021,0.235,1.867,1.056,2.587c1.249,1.127,3.154,1.83,5.654,2.086c4.568,0.476,8.989-0.597,13.136-3.188
		c5.355-3.374,8.409-8.346,9.074-14.773c0.392-3.812,0.228-7.58-0.5-11.211C272.418,503.13,270.984,500.253,268.884,498.175z"/>
	<path fill="#FFFFFF" d="M313.601,508.267c-1.923,5.338-4.434,8.19-7.467,8.488h-0.004c-1.743,0.173-3.388-0.467-4.88-1.889
		c-1.485-1.409-2.36-3.378-2.596-5.855c-0.231-2.372,0.253-4.37,1.443-5.943c1.194-1.582,2.768-2.479,4.673-2.659
		c1.813-0.177,3.509,0.315,5.044,1.481c1.515,1.148,2.789,3.226,3.79,6.175l0.034,0.105L313.601,508.267 M318.342,504.178
		c-1.418-3.387-3.391-5.923-5.864-7.543c-2.474-1.615-5.279-2.288-8.339-1.989c-4.269,0.412-7.453,2.499-9.468,6.209
		c-1.485,2.718-2.078,5.675-1.775,8.783c0.383,3.988,1.989,7.248,4.767,9.688c2.771,2.428,5.879,3.496,9.237,3.177
		c1.435-0.144,2.793-0.556,4.038-1.237c1.241-0.677,2.612-1.783,4.072-3.294l0.618-0.639l-0.088,0.888
		c-0.346,3.318-1.817,6.288-4.384,8.809l0,0c-2.562,2.523-5.532,3.967-8.825,4.286c-0.946,0.088-1.876-0.038-2.769-0.374
		c-0.613-0.231-1.152-0.324-1.594-0.278c-0.829,0.084-1.473,0.412-1.978,1.026c-0.513,0.61-0.719,1.313-0.639,2.142
		c0.101,1.018,0.605,1.779,1.552,2.326c1.447,0.854,3.449,1.17,5.951,0.921c4.578-0.441,8.692-2.368,12.238-5.733
		c4.581-4.366,6.588-9.844,5.969-16.279C320.688,511.245,319.775,507.585,318.342,504.178z"/>
	<path fill="#FFFFFF" d="M358.249,497.573c-0.808,5.611-2.688,8.909-5.603,9.81c-1.675,0.518-3.412,0.231-5.163-0.858
		c-1.737-1.076-2.99-2.831-3.727-5.207c-0.702-2.28-0.636-4.342,0.215-6.117c0.85-1.792,2.208-2.986,4.038-3.55
		c1.738-0.538,3.501-0.392,5.242,0.429c1.712,0.825,3.387,2.604,4.955,5.292l0.06,0.093L358.249,497.573 M362.069,492.597
		c-2.07-3.024-4.514-5.106-7.273-6.2c-2.743-1.081-5.624-1.17-8.565-0.257c-4.097,1.267-6.793,3.954-8.013,7.997
		c-0.909,2.944-0.9,5.96,0.025,8.947c1.19,3.836,3.415,6.705,6.628,8.531c3.207,1.821,6.467,2.233,9.689,1.245
		c1.38-0.43,2.625-1.111,3.701-2.023c1.09-0.93,2.209-2.289,3.328-4.056l0.475-0.753l0.093,0.892
		c0.333,3.311-0.509,6.517-2.511,9.516c-1.999,2.982-4.615,4.998-7.782,5.978c-0.913,0.282-1.852,0.341-2.782,0.189
		c-0.65-0.097-1.198-0.08-1.623,0.051c-0.796,0.248-1.354,0.702-1.729,1.404c-0.374,0.703-0.438,1.427-0.189,2.229
		c0.303,0.98,0.951,1.624,1.985,1.965c1.596,0.543,3.619,0.446,6.017-0.299c4.396-1.354,8.035-4.08,10.832-8.089
		c3.602-5.204,4.464-10.971,2.554-17.146C365.796,499.054,364.16,495.65,362.069,492.597z"/>
</g>
<polyline fill="#FFFFFF" points="228.079,248.503 194.371,282.687 136.448,206.248 228.079,248.503 "/>
<polyline fill="#FFFFFF" points="337.915,248.503 371.628,282.687 429.552,206.248 337.915,248.503 "/>
<path fill="#FFFFFF" d="M308.479,388.205c9.5,0,9.381,7.244,9.381,7.244c0,4.631-4.984,15.547-4.984,15.547l-8.666,20.772
	l48.428-44.156l-42.252-144.569h-54.761l-42.261,144.569l48.433,44.156l-8.666-20.772c0,0-4.985-10.916-4.985-15.547
	c0,0-0.118-7.244,9.377-7.244C267.015,388.205,298.988,388.205,308.479,388.205"/>
</svg>
