<?xml version="1.0" encoding="utf-8"?>
<!-- Generator: Adobe Illustrator 13.0.0, SVG Export Plug-In . SVG Version: 6.00 Build 14948)  -->
<!DOCTYPE svg PUBLIC "-//W3C//DTD SVG 1.0//EN" "http://www.w3.org/TR/2001/REC-SVG-20010904/DTD/svg10.dtd">
<svg version="1.0" id="HQFL" xmlns="http://www.w3.org/2000/svg" xmlns:xlink="http://www.w3.org/1999/xlink" x="0px" y="0px"
	 width="424.909px" height="439.002px" viewBox="0 0 424.909 439.002" enable-background="new 0 0 424.909 439.002"
	 xml:space="preserve">
<circle fill="#FFFFFF" cx="212.457" cy="212.459" r="209.166"/>
<path fill="#009036" d="M105.932,307.336V117.675c-14.599,16.381-25.481,36.133-31.322,57.93v73.806
	C80.45,271.211,91.333,290.961,105.932,307.336z"/>
<path fill="#009036" d="M350.304,249.417V175.6c-5.841-21.794-16.726-41.544-31.319-57.922v189.658
	C333.578,290.961,344.463,271.211,350.304,249.417z"/>
<path fill="#009036" d="M289.21,332.754V92.259c-9.707-6.215-20.213-11.289-31.325-15.031v270.558
	C268.997,344.042,279.503,338.967,289.21,332.754z"/>
<path fill="#009036" d="M212.455,355.199c5.292,0,10.517-0.3,15.661-0.862V70.677c-5.145-0.564-10.369-0.864-15.661-0.864
	c-5.292,0-10.518,0.3-15.661,0.864v283.66C201.938,354.899,207.163,355.199,212.455,355.199z"/>
<path fill="#009036" d="M167.025,347.78V77.23c-11.113,3.742-21.617,8.814-31.322,15.031v240.493
	C145.408,338.967,155.913,344.042,167.025,347.78z"/>
<polyline fill="#009036" points="127.069,347.705 108.494,378.618 115.753,382.98 138.125,345.743 125.979,338.442 122.178,344.767 
	127.069,347.705 127.069,347.705 "/>
<path fill="#009036" d="M153.878,379.004c3.325,1.15,4.103,5.075,3.053,8.125c-1.031,2.994-4.063,5.606-7.388,4.463
	c-3.322-1.144-4.103-5.068-3.072-8.063C147.522,380.48,150.557,377.868,153.878,379.004L153.878,379.004 M148.356,373.455
	c-5.047,0.15-8.616,3.425-10.247,8.169c-2.55,7.406,2.231,14.231,9.147,16.619c6.922,2.381,14.891-0.057,17.441-7.463
	c1.631-4.744,0.837-9.525-3.047-12.75c3.959-0.525,7.212-3.425,8.506-7.188c2.419-7.025-1.253-13.537-8.006-15.862
	c-6.756-2.325-13.653,0.537-16.072,7.568C144.781,366.305,145.56,370.598,148.356,373.455L148.356,373.455 M160.084,360.98
	c2.997,1.024,3.691,4.681,2.772,7.35c-0.938,2.726-3.731,5.175-6.728,4.138c-2.994-1.025-3.688-4.675-2.75-7.4
	C154.297,362.392,157.091,359.942,160.084,360.98L160.084,360.98"/>
<path fill="#009036" d="M272.147,400.542l5.675-19.831c1.388-4.869,2.156-10.513,0.55-15.444c-2.7-8.331-10.875-12.037-19.037-9.388
	c-8.494,2.763-12.601,10.819-9.825,19.369c2.313,7.125,9.162,12.169,16.725,9.713c1.15-0.375,2.237-0.969,3.038-1.656l0.149,0.074
	l-4.594,14.763L272.147,400.542L272.147,400.542 M261.522,362.442c4.056-1.318,7.875,1.863,9.087,5.588
	c1.213,3.725-0.013,8.544-4.063,9.862c-4.056,1.313-7.825-1.881-9.031-5.606C256.304,368.555,257.472,363.754,261.522,362.442
	L261.522,362.442"/>
<path fill="#009036" d="M309.903,384.124l1.419-20.581c0.344-5.05-0.075-10.731-2.669-15.226
	c-4.381-7.581-13.144-9.506-20.575-5.212c-7.731,4.462-10.075,13.2-5.581,20.981c3.75,6.487,11.494,10,18.381,6.019
	c1.044-0.601,1.981-1.406,2.625-2.244l0.156,0.044l-1.425,15.388L309.903,384.124L309.903,384.124 M291.585,349.061
	c3.693-2.131,8.087,0.182,10.05,3.581c1.962,3.388,1.769,8.356-1.925,10.487c-3.694,2.138-8.038-0.212-10-3.605
	C287.747,356.129,287.897,351.192,291.585,349.061L291.585,349.061"/>
<path fill="none" d="M73.881,212.509c0-76.534,62.041-138.575,138.575-138.575c76.528,0,138.578,62.041,138.578,138.575
	c0,76.533-62.05,138.57-138.578,138.57C135.922,351.08,73.881,289.042,73.881,212.509L73.881,212.509z"/>
<path fill="#FFFFFF" d="M69.805,208.916c-0.029,1.194-0.045,2.394-0.045,3.594c0,20.55,4.375,40.096,12.229,57.765
	c38.491-20.051,82.203-31.408,128.523-31.408c47.584,0,92.416,11.982,131.662,33.07c8.328-18.106,12.979-38.232,12.979-59.427
	c0-0.587-0.016-1.175-0.021-1.762c-43.903-20.75-92.926-32.378-144.619-32.378C160.35,178.369,112.7,189.313,69.805,208.916z"/>
<polyline fill="#009036" points="53.575,310.261 47.535,314.486 59.894,332.142 95.484,307.223 90.625,300.286 74.953,311.254 
	67.916,301.199 61.872,305.43 68.913,315.486 61.078,320.973 53.575,310.261 53.575,310.261 "/>
<polyline fill="#009036" points="38.672,280.286 31.988,283.399 41.484,303.767 80.859,285.405 71.363,265.036 64.678,268.155 
	70.597,280.842 59.944,285.811 54.244,273.592 47.56,276.711 53.26,288.93 44.591,292.973 38.672,280.286 38.672,280.286 "/>
<path fill="#009036" d="M47.85,248.705c-2.359-5.407-8.465-7.032-13.831-5.695c-9.003,2.244-11.256,8.927-9.178,17.252l2.775,11.125
	l42.153-10.513l-2.05-8.213l-16.994,4.238l-0.028-0.113l14.443-14.47l-2.481-9.95L47.85,248.705L47.85,248.705 M32.275,261.499
	l-0.281-1.119c-1.084-4.362-0.903-7.906,4.297-9.206c5.144-1.281,7.281,1.569,8.409,6.101l0.266,1.056L32.275,261.499
	L32.275,261.499"/>
<polyline fill="#009036" points="25.854,210.122 18.488,210.509 19.666,232.947 63.053,230.672 61.878,208.234 54.51,208.622 
	55.244,222.603 43.506,223.222 42.8,209.753 35.435,210.141 36.141,223.603 26.588,224.103 25.854,210.122 25.854,210.122 "/>
<polyline fill="#009036" points="61.3,205.247 62.769,196.906 33.716,191.785 33.734,191.672 67.613,174.416 68.672,168.403 
	25.031,160.712 23.563,169.05 52.334,174.122 52.313,174.238 18.435,191.491 17.375,197.506 61.3,205.247 61.3,205.247 "/>
<path fill="#009036" d="M41.994,122.087c-2.631,2.075-4.788,4.791-6.116,7.919c-4.972,11.722,1.653,23.984,13.003,28.8
	c11.035,4.682,24.275,0.475,29.047-10.769c1.372-3.237,1.603-6.581,1.459-10.081l-9.281-3.941c1.572,3.231,1.903,7.319,0.484,10.66
	c-3.084,7.266-11.709,8.859-18.447,6.003c-6.894-2.928-11.966-10.15-8.794-17.628c1.419-3.341,4.406-5.953,7.981-7.003
	L41.994,122.087L41.994,122.087"/>
<polyline fill="#009036" points="50.297,106.469 44.947,113.834 90.781,126.622 93.694,122.613 67.531,82.747 62.182,90.109 
	80.175,115.141 80.106,115.234 50.297,106.469 50.297,106.469 "/>
<path fill="#009036" d="M131.51,64.859c4.615-3.678,4.603-9.997,1.922-14.831c-4.497-8.116-11.531-8.563-19.041-4.4l-10.028,5.556
	l21.069,37.994l7.406-4.106l-8.494-15.318l0.1-0.057l17.716,10.209l8.969-4.975L131.51,64.859L131.51,64.859 M115.125,53.128
	l1.006-0.56c3.931-2.178,7.406-2.922,10.006,1.766c2.569,4.638,0.369,7.438-3.712,9.7l-0.959,0.531L115.125,53.128L115.125,53.128"
	/>
<path fill="#009036" d="M170.606,69.484c12.122-3.706,17.484-16.313,13.847-28.212c-3.556-11.625-15.103-19.244-27.225-15.538
	c-12.122,3.707-17.438,16.478-13.881,28.106C146.988,65.741,158.484,73.191,170.606,69.484L170.606,69.484 M159.669,33.725
	c7.109-2.175,14.25,3.053,16.306,9.775c1.922,6.285-0.925,15.891-7.813,17.994c-6.887,2.109-14.622-4.266-16.541-10.547
	C149.566,44.225,152.563,35.897,159.669,33.725L159.669,33.725"/>
<path fill="#009036" d="M213.979,22.403c-2.8-2.794-8.25-4.413-12.106-4.212c-7.306,0.384-12.353,6.475-11.975,13.668
	c0.353,6.728,4.584,9.337,10.288,11.344c3.462,1.147,7.672,2.197,7.909,6.685c0.175,3.337-1.8,6.384-5.253,6.563
	c-3.625,0.19-6.831-2.644-8.156-5.919l-5.188,5.638c3.256,4.85,7.81,8.072,13.794,7.759c8.859-0.466,13.946-6.903,13.49-15.594
	c-0.766-14.556-17.809-10.606-18.19-17.913c-0.147-2.819,2.331-5.025,5.038-5.168c2.819-0.147,4.962,1.125,6.688,3.228
	L213.979,22.403L213.979,22.403"/>
<polyline fill="#009036" points="235.31,20.334 226.872,19.597 223.085,62.875 231.522,63.613 235.31,20.334 235.31,20.334 "/>
<polyline fill="#009036" points="282.685,40.022 290.922,43.019 293.44,36.087 269.022,27.197 266.497,34.128 274.729,37.125 
	262.397,71.019 270.354,73.916 282.685,40.022 282.685,40.022 "/>
<path fill="#009036" d="M294.697,88.544c10.625,6.903,23.737,2.913,30.513-7.522c6.618-10.197,5.037-23.938-5.601-30.844
	c-10.625-6.903-23.825-2.769-30.45,7.428C282.385,68.041,284.065,81.638,294.697,88.544L294.697,88.544 M315.06,57.185
	c6.237,4.05,6.825,12.878,2.987,18.775c-3.575,5.506-12.763,9.5-18.8,5.578s-6.125-13.94-2.55-19.45
	C300.522,56.191,308.828,53.134,315.06,57.185L315.06,57.185"/>
<path fill="#009036" d="M338.172,100.506c4.688,3.587,10.813,2.053,14.856-1.722c6.781-6.325,5.519-13.26-0.338-19.541l-7.818-8.384
	l-31.775,29.625l5.775,6.197l12.813-11.947l0.081,0.087l-5.618,19.656l6.993,7.5L338.172,100.506L338.172,100.506 M345.591,81.769
	l0.787,0.84c3.069,3.288,4.625,6.481,0.707,10.138c-3.875,3.616-7.125,2.156-10.313-1.259l-0.75-0.8L345.591,81.769L345.591,81.769"
	/>
<polyline fill="#009036" points="333.159,121.06 337.272,128.466 363.072,114.166 363.122,114.266 347.659,148.994 350.622,154.334 
	389.372,132.853 385.26,125.447 359.716,139.609 359.659,139.506 375.122,104.781 372.159,99.441 333.159,121.06 333.159,121.06 "/>
<path fill="#009036" d="M367.51,177.06l-7.987,5.597l2.344,8.738l38.806-27.459l-1.7-6.344l-47.449-4.822l2.306,8.628l9.775,1.078
	L367.51,177.06L367.51,177.06 M373.572,172.984l-2.663-9.962l16.488,0.538l0.024,0.109L373.572,172.984L373.572,172.984"/>
<path fill="#009036" d="M402.722,242.634c1.813-2.818,2.969-6.087,3.207-9.475c0.887-12.707-9.369-22.144-21.669-23.006
	c-11.95-0.837-23.101,7.456-23.95,19.637c-0.25,3.507,0.625,6.744,1.894,10.013l10.057,0.7c-2.538-2.544-4.175-6.294-3.925-9.919
	c0.55-7.875,8.188-12.194,15.487-11.681c7.475,0.525,14.618,5.7,14.05,13.806c-0.25,3.619-2.225,7.063-5.263,9.219L402.722,242.634
	L402.722,242.634"/>
<polyline fill="#009036" points="398.872,263.286 401.21,255.142 359.447,243.16 353.81,262.824 360.897,264.861 364.197,253.336 
	398.872,263.286 398.872,263.286 "/>
<path fill="#009036" d="M369.31,272.661c-9.525-4.649-18.693-4.125-23.8,6.338c-5.101,10.463,0.125,18.013,9.649,22.662
	l23.356,11.395l3.719-7.613l-21.856-10.662c-4.818-2.35-11.394-6.075-8.243-12.544c3.162-6.475,10.149-3.581,14.962-1.231
	l21.851,10.663l3.719-7.612L369.31,272.661L369.31,272.661"/>
<path fill="#009036" d="M346.703,314.936l-0.868,1.075c-2.688,3.313-5.763,6.75-10.15,3.2c-4.388-3.557-2.375-6.963,0.487-10.5
	l1.125-1.388L346.703,314.936L346.703,314.936 M337.347,296.461l-8.375,10.344c-4.969,6.131-5.787,13.188,0.838,18.55
	c3.719,3.013,9.2,4.487,13.144,1.081c-0.356,3.193,1.731,6.294,4.144,8.25c6.719,5.443,12.301,3.581,17.375-2.688l6.638-8.193
	L337.347,296.461L337.347,296.461 M360.497,326.105l-0.688,0.85c-2.25,2.781-4.744,4.025-8.188,1.237
	c-3.5-2.837-3.162-5.162-0.557-8.387l0.656-0.807L360.497,326.105L360.497,326.105"/>
<path fill="#009036" d="M212.457,0C95.308,0,0,95.31,0,212.459c0,111.346,86.1,202.951,195.216,211.758l9.388,11.037
	c4.168,4.95,11.247,5.044,15.513,0l9.425-11.024c109.188-8.731,195.368-100.375,195.368-211.771C424.909,95.31,329.604,0,212.457,0z
	 M212.941,339.061l-27.139,5.231c-41.974-8.476-76.914-36.569-94.836-74.257c36.175-17.512,76.731-27.357,119.547-27.357
	c44.06,0,85.729,10.414,122.69,28.896c-18.237,37.112-53.075,64.656-94.787,72.85L212.941,339.061z M78.125,207.947
	c40.666-17.431,85.416-27.109,132.391-27.109c48.494,0,94.628,10.307,136.338,28.822c0.019,0.95,0.071,1.894,0.071,2.85
	c0,19.226-4.084,37.508-11.391,54.058c-37.668-18.813-80.128-29.414-125.021-29.414c-43.624,0-84.947,10.015-121.814,27.84
	c-6.871-16.132-10.689-33.871-10.689-52.483C78.01,210.978,78.075,209.466,78.125,207.947z M78.469,201.891
	c5.435-69.188,63.435-123.837,133.997-123.837c71.156,0,129.547,55.569,134.135,125.581
	c-41.734-18.141-87.754-28.225-136.085-28.225C163.738,175.41,119.127,184.842,78.469,201.891z M237.663,414.73l10.478-12.25
	c4.269-5.044,4.169-13.288,0-18.231l-7.563-8.862v-22.976c43.953-8.813,80.644-37.899,99.944-77.037c0,0,0.006,0,0.009,0.006
	c0.085-0.175,0.159-0.35,0.244-0.519c0.634-1.306,1.253-2.618,1.847-3.943c0.084-0.182,0.175-0.362,0.256-0.544
	c0-0.006-0.006-0.006-0.009-0.006c7.884-17.7,12.297-37.271,12.297-57.858c0-78.684-64.016-142.697-142.7-142.697
	c-76.367,0-138.909,60.302-142.526,135.788c-0.003,0.003-0.008,0.003-0.011,0.003c-0.016,0.31-0.012,0.622-0.025,0.932
	c-0.06,1.438-0.097,2.881-0.112,4.331c-0.003,0.269-0.019,0.531-0.022,0.797c0.004-0.003,0.008-0.003,0.012-0.003
	c-0.003,0.281-0.012,0.563-0.012,0.85c0,19.94,4.131,38.933,11.553,56.183c-0.006,0.007-0.014,0.013-0.022,0.013
	c0.534,1.244,1.103,2.463,1.672,3.688c0.142,0.307,0.275,0.619,0.42,0.925c0.067,0.145,0.126,0.288,0.192,0.432
	c0.006-0.006,0.011-0.006,0.016-0.013c19.207,40.25,56.716,70.156,101.703,78.856v22.438l-8.244,9.706
	c-4.266,4.944-4.169,13.281,0,18.132l10.081,11.85C86.652,402.217,8.628,316.28,8.628,212.459
	c0-112.394,91.438-203.831,203.828-203.831c112.39,0,203.828,91.438,203.828,203.831
	C416.284,316.317,338.203,402.274,237.663,414.73z"/>
<path fill="#FFFFFF" d="M182.838,390.567c3.425-2.125,9.842-6.094,11.998-7.425c0.742,1.182,2.709,4.331,4.846,7.75l-11.927,7.538
	l2.236,3.581l11.928-7.544c2.081,3.338,3.981,6.375,4.706,7.537c-2.217,1.4-8.784,5.544-11.933,7.531l2.236,3.575l15.5-9.781
	l-16.241-25.987l-1.786,1.106l-13.798,8.537L182.838,390.567z"/>
<path fill="#FFFFFF" d="M230.222,409.536c-3.149-1.987-9.719-6.131-11.938-7.531c0.726-1.162,2.625-4.199,4.707-7.531l11.931,7.538
	l2.234-3.575l-11.928-7.544c2.138-3.419,4.103-6.568,4.844-7.75c2.156,1.331,8.575,5.3,12.003,7.419l2.234-3.575l-15.588-9.644
	l-1.112,1.781l-15.126,24.206l15.501,9.781L230.222,409.536z"/>
<path fill="#FFFFFF" d="M223.554,357.83c-0.013,3.869-0.044,10.844-0.057,13.737c-1.5,0-4.794,0-8.394,0l-0.067-13.737h-4.974
	l0.067,13.737c-3.494,0-6.658,0-8.12,0c-0.013-2.987-0.045-10.149-0.063-13.737h-4.974l0.084,18.713h31.389l0.081-18.713H223.554z"
	/>
<path fill="#009036" d="M83.269,66.622l-3.786,3.525l-0.356-0.356l-4.847,4.85l1.92,1.919l3.188-3.191l17.106,41.9l6.531-6.091
	l-3.638-9.138l11.041-10.293l8.694,4.422l6.616-6.172L83.269,66.622z M96.444,93.334l-7.272-14.806l0.084-0.078l14.728,7.85
	L96.444,93.334z"/>
<path fill="#009036" d="M96.194,235.128l1.244-0.476c3.834-1.475,8.063-2.85,10.05,2.332c1.991,5.181-1.332,7.063-5.425,8.631
	l-1.606,0.62L96.194,235.128L96.194,235.128 M95.234,255.399l11.972-4.594c7.097-2.726,11.147-8.283,8.144-16.108
	c-1.684-4.388-5.584-8.356-10.525-7.431c1.828-2.519,1.553-6.175,0.459-9.031c-3.047-7.931-8.619-9.131-15.872-6.35l-9.484,3.644
	L95.234,255.399L95.234,255.399 M89.941,218.841l0.984-0.375c3.212-1.231,5.9-1.05,7.462,3.019c1.584,4.125,0.197,5.931-3.534,7.363
	l-0.932,0.362L89.941,218.841L89.941,218.841"/>
<path fill="#009036" d="M126.582,227.403l3.913-1.05c8.256-2.212,11.778-7.725,9.431-16.481c-2.506-9.353-8.953-11.322-17.425-9.05
	l-10.722,2.872l11.056,41.247l7.881-2.106L126.582,227.403L126.582,227.403 M121.447,208.253l1.394-0.369
	c4.397-1.181,7.606-1.219,9.028,4.088c1.438,5.362-0.803,7.075-5.469,8.325l-1.609,0.431L121.447,208.253L121.447,208.253"/>
<polyline fill="#009036" points="164.578,198.966 163.194,191.847 141.944,195.975 150.094,237.897 171.344,233.766 
	169.959,226.653 156.722,229.222 154.516,217.878 167.266,215.403 165.881,208.285 153.131,210.766 151.338,201.538 
	164.578,198.966 164.578,198.966 "/>
<path fill="#009036" d="M195.685,192.513c-2.797-2.656-8.103-4.069-11.806-3.747c-7.022,0.616-11.666,6.763-11.05,13.816
	c0.578,6.603,4.747,9.021,10.31,10.809c3.375,1.019,7.466,1.906,7.85,6.306c0.288,3.275-1.506,6.332-4.825,6.619
	c-3.484,0.306-6.672-2.369-8.063-5.55l-4.793,5.712c3.303,4.656,7.803,7.675,13.553,7.169c8.516-0.744,13.185-7.231,12.441-15.75
	c-1.25-14.278-17.522-9.844-18.15-17.009c-0.241-2.766,2.068-5.013,4.668-5.241c2.709-0.237,4.819,0.944,6.553,2.953
	L195.685,192.513L195.685,192.513"/>
<polyline fill="#009036" points="217.813,196.278 226.247,196.428 226.378,189.178 201.347,188.738 201.222,195.988 
	209.656,196.134 209.038,231.584 217.197,231.728 217.813,196.278 217.813,196.278 "/>
<path fill="#009036" d="M227.609,223.216c-2.712-0.194-5.087,1.856-5.274,4.625c-0.2,2.77,1.855,5.244,4.574,5.432
	c2.713,0.188,5.088-1.975,5.275-4.744C232.385,225.766,230.322,223.403,227.609,223.216L227.609,223.216"/>
<polyline fill="#009036" points="249.453,191.144 241.335,190.291 236.878,232.759 244.997,233.616 249.453,191.144 
	249.453,191.144 "/>
<polyline fill="#009036" points="263.635,213.509 246.534,233.441 255.935,235.103 266.522,221.097 272.109,237.959 281.46,239.61 
	272.703,215.109 287.622,197.328 278.109,195.65 269.797,207.641 265.534,193.431 256.022,191.753 263.635,213.509 263.635,213.509 
	"/>
<path fill="#009036" d="M289.929,233.597c-2.619-0.75-5.356,0.763-6.119,3.431c-0.769,2.669,0.725,5.513,3.338,6.263
	c2.618,0.75,5.394-0.868,6.156-3.537C294.072,237.084,292.547,234.353,289.929,233.597L289.929,233.597"/>
<polyline fill="#009036" points="313.26,224.397 313.159,224.359 319.315,207.435 311.647,204.641 297.047,244.772 304.71,247.567 
	311.278,229.522 311.385,229.559 317.385,252.18 327.247,255.774 319.359,228.422 341.016,215.334 331.572,211.897 313.26,224.397 
	313.26,224.397 "/>
<path fill="#009036" d="M336.491,250.874c-2.52-1.175-5.507-0.131-6.676,2.388c-1.168,2.513-0.1,5.575,2.419,6.75
	c2.513,1.169,5.55,0.024,6.719-2.494C340.122,255.004,339.01,252.042,336.491,250.874L336.491,250.874"/>
</svg>
