<?xml version="1.0" encoding="UTF-8" standalone="no"?>
<!DOCTYPE svg PUBLIC "-//W3C//DTD SVG 1.0//EN" "http://www.w3.org/TR/2001/REC-SVG-20010904/DTD/svg10.dtd">
<!-- Created with Inkscape (http://www.inkscape.org/) by Steadfast-->
<svg
   xmlns:svg="http://www.w3.org/2000/svg"
   xmlns="http://www.w3.org/2000/svg"
   version="1.0"
   width="420"
   height="500"
   id="svg2211">
  <defs
     id="defs2213" />
  <g
     transform="translate(-229.712,-142.52)"
     id="layer1">
    <g
       transform="matrix(2.1849466,0,0,2.1849466,-259.47009,-158.87859)"
       id="g2404">
      <g
         transform="matrix(1.25,0,0,1.25,229.712,142.52)"
         id="g8"
         style="fill:#ffffff;fill-rule:nonzero;stroke:none;stroke-width:1;stroke-linecap:butt;stroke-linejoin:miter;stroke-dasharray:none">
        <path
           d="M 54.3545,0 C 54.416,0.00781 75.9215,2.69535 79.7985,2.69535 C 83.6395,2.69535 95.6785,0.02929 95.7125,0.02148 C 95.7125,0.02148 96.9835,0.72558 96.9835,0.72558 C 96.9835,0.72558 118.248,61.0185 118.248,61.0185 C 120.653,60.6104 126.897,59.9131 129.151,63.1524 C 129.151,63.1524 129.151,63.1572 129.151,63.1572 C 129.151,63.1572 129.154,63.1611 129.154,63.1611 C 131.042,65.8828 131.683,71.2569 132.338,76.7509 C 132.487,77.9981 132.636,79.25 132.754,80.1552 C 132.754,80.1552 132.756,80.1661 132.756,80.1661 C 133.136,83.0479 133.707,85.6826 134.162,87.7901 C 134.462,89.1757 134.713,90.3359 134.842,91.278 C 134.842,91.278 134.842,91.2869 134.842,91.2869 C 134.845,91.315 136.059,100.809 136.242,102.983 C 136.242,102.983 136.242,102.991 136.242,102.991 C 136.242,102.991 136.242,102.996 136.242,102.996 C 136.297,103.69 136.23,104.401 136.165,105.107 C 136.04,106.414 135.917,107.695 137.064,108.237 C 137.064,108.237 137.066,108.24 137.066,108.24 C 137.066,108.24 137.07,108.24 137.07,108.24 C 137.677,108.525 138.41,108.702 139.137,108.878 C 141.629,109.479 144.083,110.07 144.296,113.909 C 144.296,113.909 144.323,114.376 144.323,114.376 C 144.579,118.837 145.02,126.538 139.915,130.914 C 135.703,134.525 128.149,135.7 125.541,136.008 C 125.249,138.326 124.103,144.248 119.951,145.34 C 116.832,146.161 114.16,146.419 112.784,146.501 C 112.463,148.535 111.111,152.874 105.415,153.484 C 102.829,153.761 101.137,153.745 100.032,153.593 C 99.7335,155.446 98.5775,159.551 94.1485,160.822 C 94.1485,160.822 93.8775,160.86 93.8775,160.86 C 93.8775,160.86 84.9825,161.111 84.9825,161.111 C 84.6215,164.573 82.8105,175.748 74.4668,175.748 C 66.9414,175.748 64.9209,166.58 64.458,163.543 C 61.5732,163.412 53.0039,162.732 50.8164,159.232 C 49.2021,156.649 48.2451,154.933 47.8086,154.122 C 45.958,153.895 40.4365,152.925 38.0791,149.281 C 36.3466,146.604 35.2041,145.286 34.6767,144.738 C 32.8681,144.936 27.1113,145.247 24.4443,141.691 C 22.6484,139.296 22.25,137.405 22.2421,136.217 C 19.7451,135.893 13.7851,134.718 9.9209,130.663 C 5.8261,126.364 4.8447,122.906 4.6289,121.844 C 4.6289,121.844 0.249,116.519 0.249,116.519 C 0.249,116.519 0,115.733 0,115.733 C 0.0029,115.7 0.8857,104.291 5.9121,104.587 C 5.9121,104.587 5.9228,104.588 5.9228,104.588 C 6.4648,104.619 7.0644,104.636 7.6914,104.626 C 7.6914,104.626 7.6953,104.626 7.6953,104.626 C 8.3291,104.616 9.0156,104.58 9.7334,104.507 C 13.2119,104.155 17.1972,102.94 18.5029,99.6029 C 18.5029,99.6029 18.5039,99.6009 18.5039,99.6009 C 18.7968,98.8529 19.705,96.8539 21.0576,93.957 C 22.5254,90.8125 24.2822,87.0986 26.1982,83.0781 C 36.663,61.125 54.2558,24.9111 56.1093,21.3711 C 57.3144,19.0703 58.3711,16.9843 58.3281,15.2792 C 58.289,13.7354 57.2441,12.336 54.3242,11.0586 C 50.3759,9.33105 49.2871,7.97655 49.2841,7.97165 C 49.2841,7.97165 49.2109,6.66695 49.2109,6.66695 C 49.2109,6.66695 53.3066,0.48535 53.3066,0.48535 C 53.3066,0.48535 54.3545,0 54.3545,0 z"
           id="path10" />
      </g>
      <g
         transform="matrix(1.25,0,0,1.25,229.874,143.302)"
         id="g12"
         style="fill:#d10010;fill-rule:evenodd;stroke:none;stroke-width:1;stroke-linecap:butt;stroke-linejoin:miter;stroke-dasharray:none">
        <path
           d="M 95.8206,0.46387 C 96.6546,1.57718 115.974,59.5489 116.808,60.291 C 116.808,60.291 116.622,60.6612 116.622,60.6612 C 111.059,61.3106 105.634,62.2842 99.9316,62.7012 C 94.6926,63.3506 89.3136,64.3242 83.7966,64.7412 C 83.5186,65.0196 83.0076,64.834 82.6836,65.0196 C 82.0806,63.7676 71.6025,35.8565 70.165,33.7696 C 68.7275,34.7901 38.9619,94.183 37.3388,98.031 C 36.9218,100.674 37.8027,103.316 39.75,104.894 C 41.6513,106.284 48.8369,106.608 49.1152,107.86 C 49.6259,109.251 50.5068,115.187 50.5068,115.187 C 50.5068,115.187 49.9502,115.558 49.9502,115.558 C 49.9502,115.558 2.1787,115.558 0.9267,115.604 C 0,114.352 2.4267,108.186 2.4726,106.099 C 5.2549,103.78 8.1914,105.403 12.58,103.966 C 15.9951,103.085 16.3828,101.74 18.2363,100.628 C 18.6074,99.7 57.7392,19.9073 58.667,16.9854 C 58.9912,14.8067 58.7597,12.6739 56.998,11.2364 C 54.9111,9.89258 49.2549,7.20308 49.8574,6.41408 C 51.8515,3.86428 51.2793,3.41598 54.0918,0.46387 C 54.0918,0.46387 76.5016,3.55568 81.7556,3.09178 C 87.0106,2.62798 95.9126,0 95.8206,0.46387 z"
           id="path14" />
      </g>
      <g
         transform="matrix(1.25,0,0,1.25,286.226,218.027)"
         id="g16"
         style="fill:#008530;fill-rule:evenodd;stroke:none;stroke-width:1;stroke-linecap:butt;stroke-linejoin:miter;stroke-dasharray:none">
        <path
           d="M 82.4826,2.5498 C 82.6676,2.874 83.0386,3.1523 83.4106,3.1992 C 83.5486,3.9414 84.3366,4.4053 84.6156,5.0537 C 84.8476,6.3984 87.2576,27.1699 88.6026,29.7197 C 89.0196,35.1907 90.5036,40.9407 89.7156,46.2257 C 89.8076,47.9417 91.3376,48.3587 91.9406,49.8417 C 92.9136,52.0217 93.8876,54.2007 94.9086,56.3327 C 94.9086,56.3327 94.6306,56.6117 94.6306,56.6117 C 94.6306,56.6117 55.9616,56.5187 55.9616,56.5187 C 55.9616,56.5187 56.5186,53.7837 56.8896,52.5317 C 57.2136,48.5437 57.6776,43.5827 56.1476,39.9197 C 55.3596,37.0457 54.2006,34.3107 52.4386,31.9457 C 49.8416,28.3291 44.9276,24.3418 42.4226,23.5068 C 39.9196,22.6728 36.5666,21.0801 32.8716,20.9111 C 29.1787,20.7402 23.5996,21.7451 23.5996,21.7451 C 23.5996,21.7451 19.751,23.2139 19.751,23.2139 C 19.751,23.2139 16.7373,24.8047 16.7373,24.8047 C 16.7373,24.8047 15.1611,25.7324 14.5127,26.5674 C 13.3066,27.3086 12.4717,28.4219 11.3594,29.3486 C 10.6172,30.3223 9.1338,32.5937 9.1338,32.5937 C 9.1338,32.5937 7.1865,35.9327 7.1865,35.9327 C 7.1865,35.9327 4.6826,42.6097 4.6826,42.6097 C 4.6826,42.6097 4.0332,43.7217 3.8486,44.3707 C 2.6885,43.6297 0.3242,44.1387 0.3242,42.1457 C 0,40.2447 14.8369,10.293 14.9756,9.041 C 14.9756,9.041 16.2744,7.7197 16.2744,7.7197 C 21.5137,7.7197 69.1756,2.0635 72.1436,1.2285 C 75.0646,1.5527 78.6806,0 81.3696,1.9014 C 81.3696,1.9014 82.4826,2.5498 82.4826,2.5498 z M 85.4726,27.7725 C 85.0556,29.8584 82.6676,32.2697 81.4616,34.1707 C 81.6946,33.6607 75.2036,28.5146 74.7866,28.2353 C 76.1306,27.5879 80.3956,30.5078 81.4616,30.5547 C 82.6206,29.8125 83.5946,28.8389 84.5226,28.0508 C 84.5226,28.0508 85.4726,27.7725 85.4726,27.7725 z M 77.7066,12.6689 C 80.0606,12.6689 81.9686,11.1279 81.9686,9.2266 C 81.9686,7.3252 80.0606,5.7842 77.7066,5.7842 C 75.3536,5.7842 73.4446,7.3252 73.4446,9.2266 C 73.4446,11.1279 75.3536,12.6689 77.7066,12.6689 z M 71.6796,16.877 C 71.6796,16.877 73.5346,16.4131 73.5346,16.4131 C 73.5346,16.4131 73.7656,18.499 73.7656,18.499 C 73.7656,18.499 72.1436,18.499 72.1436,18.499 C 72.1436,18.499 71.6796,16.877 71.6796,16.877 z M 75.6206,18.2676 C 75.6206,18.2676 75.6206,16.4131 75.6206,16.4131 C 75.6206,16.4131 77.9386,15.9502 80.7206,15.9502 C 83.5016,15.9502 84.6626,16.4131 84.6626,16.4131 C 84.6626,16.4131 84.8936,18.2207 84.8936,18.2207 C 84.8936,18.2207 75.6206,18.2676 75.6206,18.2676 z M 64.0946,13.2012 C 63.7966,15.0625 61.4876,14.4668 60.0726,14.9883 C 47.1866,14.6162 35.5656,18.042 23.126,16.627 C 27.6699,16.0312 61.8606,11.7109 63.7966,11.7109 C 63.7966,11.7109 64.0946,13.2012 64.0946,13.2012 z M 86.7476,40.9867 C 87.7716,40.9867 88.6026,39.8857 88.6026,38.5277 C 88.6026,37.1687 87.7716,36.0687 86.7476,36.0687 C 85.7236,36.0687 84.8936,37.1687 84.8936,38.5277 C 84.8936,39.8857 85.7236,40.9867 86.7476,40.9867 z M 77.2436,42.0687 C 78.6066,42.0687 79.7116,40.8577 79.7116,39.3647 C 79.7116,37.8697 78.6066,36.6587 77.2436,36.6587 C 75.8796,36.6587 74.7746,37.8697 74.7746,39.3647 C 74.7746,40.8577 75.8796,42.0687 77.2436,42.0687 z"
           id="path18" />
      </g>
      <g
         transform="matrix(1.25,0,0,1.25,331.953,294.587)"
         id="g20"
         style="fill:#c4c6c7;fill-rule:evenodd;stroke:none;stroke-width:1;stroke-linecap:butt;stroke-linejoin:miter;stroke-dasharray:none">
        <path
           d="M 60.088,1.113 C 59.764,4.405 57.492,7.835 54.432,9.366 C 52.346,10.572 49.795,10.293 47.57,11.498 C 39.41,12.889 30.554,12.287 21.977,12.426 C 21.467,12.379 21.143,12.796 20.772,13.167 C 21.05,13.631 20.911,14.42 21.606,14.652 C 28.143,14.652 34.496,14.652 40.894,14.652 C 41.728,15.578 40.94,16.969 40.708,18.082 C 39.502,19.705 38.436,22.162 35.886,22.07 C 34.263,22.812 32.269,22.162 30.414,22.255 C 29.859,21.653 29.302,22.116 28.654,22.255 C 26.381,21.42 24.527,22.672 22.163,22.255 C 21.05,22.672 19.659,21.327 18.639,22.348 C 15.95,22.488 12.982,21.977 10.385,22.441 C 10.061,22.626 9.968,22.812 9.644,23.09 C 9.69,23.739 9.875,24.619 10.664,24.666 C 16.367,24.619 22.07,24.295 27.726,24.574 C 27.726,24.574 28.561,25.13 28.561,25.13 C 28.189,26.567 26.891,27.773 25.686,28.561 C 24.712,28.607 23.878,29.071 22.997,29.488 C 17.433,29.998 12.009,29.256 6.399,29.766 C 5.841,29.952 5.795,30.508 5.841,31.065 C 5.935,31.389 6.259,31.899 6.677,31.992 C 9.737,32.177 12.936,31.529 16.042,32.177 C 15.671,34.774 13.4,36.49 11.22,37.462 C 8.996,38.112 6.955,37.648 4.636,38.204 C 4.172,37.973 3.849,37.648 3.617,37.185 C 4.034,33.986 4.451,30.461 3.338,27.541 C 3.385,24.481 2.226,21.607 1.855,18.732 C 1.344,17.062 0.139,15.578 0,13.91 C 0.881,12.147 3.246,13.214 4.451,11.869 C 6.583,11.684 7.975,9.737 10.015,9.366 C 13.213,7.372 15.624,3.709 18.268,0.927 C 18.268,0.927 19.659,0.742 19.659,0.742 C 19.659,0.742 46.735,0.556 46.735,0.556 C 49.518,0.325 53.457,0.556 56.565,0.371 C 57.817,0.696 59.346,0 60.088,1.113 z"
           id="path22" />
      </g>
      <g
         transform="matrix(1.25,0,0,1.25,238.992,295.108)"
         id="g24"
         style="fill:#c4c6c7;fill-rule:evenodd;stroke:none;stroke-width:1;stroke-linecap:butt;stroke-linejoin:miter;stroke-dasharray:none">
        <path
           d="M 45.3447,2.457 C 47.8017,5.749 51.001,8.856 54.8027,10.433 C 54.8027,10.433 58.3271,12.102 58.3271,12.102 C 58.3271,12.102 62.6846,13.307 62.6846,13.307 C 63.2871,14.559 63.334,15.996 64.0752,17.202 C 63.9365,19.243 65.5127,20.633 65.4668,22.673 C 68.0166,30.138 67.4609,38.715 65.9297,46.597 C 65.0498,47.71 65.5127,49.658 63.9834,50.306 C 62.1748,49.471 61.5723,47.339 60.5517,45.762 C 60.3662,44.696 60.2744,43.583 59.625,42.702 C 59.1142,39.318 59.1142,36.258 59.2539,32.688 C 59.2539,32.688 59.625,27.866 59.625,27.866 C 59.5781,27.263 58.6973,27.077 58.1406,27.31 C 57.3066,27.356 57.3525,28.329 57.2139,28.793 C 57.1211,31.806 56.7041,35.238 56.8428,38.159 C 56.8887,38.901 56.1943,38.947 55.6367,39.179 C 52.2998,37.927 48.0801,38.901 45.4375,35.933 C 44.4639,34.728 43.165,33.569 43.3047,31.853 C 44.3242,31.204 45.8086,31.946 47.0137,31.575 C 47.0137,31.575 53.9678,31.389 53.9678,31.389 C 54.5713,31.019 54.4316,30.369 54.4316,29.813 C 54.4316,29.813 53.7832,29.257 53.7832,29.257 C 48.2187,29.21 42.2373,29.72 36.999,29.164 C 34.6338,28.097 32.5478,26.197 31.25,23.971 C 31.0644,22.534 32.6865,23.461 33.29,22.951 C 34.959,23.507 36.9062,22.162 38.668,23.044 C 40.708,22.348 42.0058,23.229 44.0459,22.673 C 45.4375,23.229 46.7812,22.348 48.5898,22.673 C 49.0078,22.348 49.5635,21.653 48.96,21.19 C 48.2656,20.215 46.8281,20.448 45.9004,20.539 C 43.5361,20.401 41.0322,20.308 38.5752,20.633 C 37.0449,19.984 35.6074,21.19 34.0312,20.539 C 32.6406,21.328 30.8789,20.122 29.5801,20.91 C 28.4678,20.865 27.2158,20.308 26.1494,20.91 C 22.7646,21.282 19.751,19.937 17.8965,17.294 C 17.1553,16.506 16.6904,15.254 17.1553,14.327 C 19.4267,13.585 21.374,14.559 23.6455,13.864 C 24.9902,14.235 26.2881,13.91 27.54,13.771 C 28.9316,14.327 30.5537,13.447 31.8057,14.049 C 34.0781,13.493 36.1182,13.91 38.4824,13.956 C 39.5488,13.029 42.0058,14.744 42.2842,12.843 C 42.331,12.287 41.9131,11.592 41.4502,11.545 C 40.1982,11.22 38.8535,12.102 37.6475,11.452 C 36.0254,12.241 34.2637,10.989 32.6406,11.824 C 30.6933,11.174 29.2558,12.333 27.4473,11.545 C 25.7783,12.195 24.0625,11.36 22.4404,11.916 C 20.7715,11.267 19.0557,12.333 17.3398,11.73 C 16.3662,11.916 15.2529,12.195 14.373,11.545 C 12.5644,10.943 10.293,11.638 8.8096,10.247 C 6.1201,9.412 3.8945,7.141 1.9473,5.24 C 1.9473,5.24 0,1.809 0,1.809 C 0.3711,0.928 1.5752,1.16 2.3174,0.881 C 4.3115,1.392 5.4248,0.65 7.418,1.16 C 9.5976,1.113 11.6377,0.788 13.5381,1.067 C 15.3467,0.232 16.6904,1.484 18.3594,0.696 C 19.5195,0.557 20.5859,1.392 21.6055,0.696 C 23.9707,1.298 26.0566,0.279 28.4678,0.51 C 33.6142,0.928 38.668,0 43.7685,0.604 C 44.5566,1.021 45.0664,1.669 45.3447,2.457 z"
           id="path26" />
      </g>
      <g
         transform="matrix(1.25,0,0,1.25,325.173,311.337)"
         id="g28"
         style="fill:#c4c6c7;fill-rule:evenodd;stroke:none;stroke-width:1;stroke-linecap:butt;stroke-linejoin:miter;stroke-dasharray:none">
        <path
           d="M 3.384,2.271 C 6.12,6.677 6.073,12.333 7.001,17.386 C 6.768,21.559 6.954,26.196 5.424,29.998 C 5.516,31.852 4.451,33.197 3.94,34.819 C 3.292,34.727 3.245,35.7 3.013,36.024 C 2.642,35.978 2.874,34.819 2.921,34.449 C 2.921,34.449 3.199,34.263 3.199,34.263 C 4.589,26.473 5.099,18.129 3.106,10.617 C 2.41,7.603 1.669,4.636 0.509,1.807 C 0.741,1.298 0,0.695 0.787,0.51 C 2.271,0 2.688,1.437 3.384,2.271 z"
           id="path30" />
      </g>
      <g
         transform="matrix(1.25,0,0,1.25,400.457,279.056)"
         id="g32"
         style="fill:#e52d20;fill-rule:evenodd;stroke:none;stroke-width:1;stroke-linecap:butt;stroke-linejoin:miter;stroke-dasharray:none">
        <path
           d="M 6.212,2.689 C 6.306,4.126 6.908,5.563 6.398,7.046 C 5.471,7.186 4.45,7.046 3.616,7.51 C 2.457,5.192 1.391,2.411 0,0 C 1.993,1.066 4.498,0.973 6.212,2.689 z"
           id="path34" />
      </g>
      <g
         transform="matrix(1.25,0,0,1.25,293.342,245.274)"
         id="g36"
         style="fill:#161413;fill-rule:nonzero;stroke:none;stroke-width:1;stroke-linecap:butt;stroke-linejoin:miter;stroke-dasharray:none">
        <path
           d="M 25.2622,50.5278 C 18.2861,50.5258 11.9697,47.6978 7.3994,43.1268 C 2.8291,38.5568 0.0019,32.2408 0.0019,25.2648 C 0.0019,25.2648 0,25.2648 0,25.2648 C 0,25.2648 0,25.2628 0,25.2628 C 0,25.2628 0.0019,25.2628 0.0019,25.2628 C 0.0019,18.2848 2.8291,11.9698 7.3994,7.3994 C 11.9707,2.8291 18.2851,0.0019 25.2622,0.0019 C 25.2622,0.0019 25.2622,0 25.2622,0 C 25.2622,0 25.2632,0 25.2632,0 C 25.2632,0 25.2632,0.0019 25.2632,0.0019 C 32.2412,0.0019 38.5572,2.8291 43.1282,7.3994 C 47.6982,11.9698 50.5252,18.2848 50.5262,25.2618 C 50.5262,25.2618 50.5272,25.2638 50.5272,25.2638 C 50.5252,32.2408 47.6982,38.5578 43.1272,43.1278 C 38.5562,47.6978 32.2412,50.5258 25.2642,50.5268 C 25.2642,50.5268 25.2622,50.5278 25.2622,50.5278 z"
           id="path38" />
      </g>
      <g
         transform="matrix(1.25,0,0,1.25,235.746,292.965)"
         id="g40"
         style="fill:#161413;fill-rule:evenodd;stroke:none;stroke-width:1;stroke-linecap:butt;stroke-linejoin:miter;stroke-dasharray:none">
        <path
           d="M 138.908,0 C 139.697,0.696 139.001,1.901 138.908,2.782 C 138.491,5.24 137.378,7.557 135.94,9.551 C 134.643,10.571 133.159,11.962 131.49,12.611 C 128.291,13.817 124.999,14.791 121.382,15.022 C 119.713,15.764 120.408,17.804 119.713,19.102 C 119.434,21.466 117.21,23.136 115.54,24.666 C 113.315,25.222 110.997,25.639 108.493,25.593 C 106.777,26.381 107.334,28.56 105.896,29.581 C 103.624,32.363 99.6844,33.057 95.9744,32.919 C 94.6764,33.568 94.7694,35.331 93.9354,36.443 C 92.8224,38.019 91.0604,39.734 89.0204,40.337 C 89.0204,40.337 88.4634,40.709 88.4634,40.709 C 88.4634,40.709 80.5824,41.264 80.5824,41.264 C 78.2634,43.907 79.2834,47.988 76.8724,50.63 C 75.4814,53.087 72.9314,54.943 70.0108,55.174 C 68.5264,54.896 66.8574,55.035 65.7461,53.875 C 63.9375,53.087 63.2881,51.094 62.0361,49.61 C 61.9434,49.054 61.5254,48.683 61.294,48.219 C 61.2012,46.503 60.46,45.02 59.9961,43.491 C 58.6973,42.377 56.751,42.98 55.3594,42.099 C 51.9287,42.099 48.6826,40.94 46.1797,38.576 C 44.9736,37.091 44.2324,35.284 43.1192,33.939 C 41.543,32.78 39.2705,33.197 37.7412,31.806 C 36.9063,31.899 36.7676,30.879 35.9785,30.786 C 33.29,29.395 32.4092,25.917 30.1367,24.294 C 26.9375,24.11 23.5068,24.481 20.9561,22.533 C 19.6592,21.282 18.7315,19.751 17.8037,18.267 C 17.4336,17.248 17.8965,15.81 16.6914,15.208 C 11.3135,14.652 6.4912,12.148 2.875,7.975 C 2.458,6.722 1.4375,5.981 1.2061,4.636 C 0.417,3.756 0.6025,2.458 0,1.484 C 0,1.484 0.835,1.02 0.835,1.02 C 0.835,1.02 32.8262,0.649 32.8262,0.649 C 32.8262,0.649 47.1992,0.371 47.1992,0.371 C 48.8223,0.881 48.7295,2.643 49.8877,3.617 C 52.5313,7.14 56.1475,10.154 60.3662,11.406 C 62.2217,12.333 61.7578,11.947 63.9834,12.704 C 68.1719,13.337 71.3384,13.878 76.2234,13.075 C 78.8364,12.41 78.9134,12.642 81.2314,11.483 C 84.4764,10.324 84.5694,9.597 86.3314,8.809 C 89.9014,6.445 92.0494,3.91 94.5844,0.186 C 94.5844,0.186 113.871,0 113.871,0 C 113.871,0 138.908,0 138.908,0 z"
           id="path42" />
      </g>
      <g
         transform="matrix(1.25,0,0,1.25,238.992,294.587)"
         id="g44"
         style="fill:#c4c6c7;fill-rule:evenodd;stroke:none;stroke-width:1;stroke-linecap:butt;stroke-linejoin:miter;stroke-dasharray:none">
        <path
           d="M 72.3287,15.671 C 75.0647,20.077 75.0177,25.733 75.9457,30.786 C 75.7127,34.959 75.8987,39.596 74.3687,43.398 C 74.4607,45.252 73.3957,46.597 72.8847,48.219 C 72.2367,48.127 72.1897,49.1 71.9577,49.424 C 71.5867,49.378 71.8187,48.219 71.8657,47.849 C 71.8657,47.849 72.1437,47.663 72.1437,47.663 C 73.5337,39.873 74.0437,31.529 72.0507,24.017 C 71.3547,21.003 70.6137,18.036 69.4537,15.207 C 69.6857,14.698 68.9447,14.095 69.7317,13.91 C 71.2157,13.4 71.6327,14.837 72.3287,15.671 z M 45.3447,2.874 C 47.8017,6.166 51.001,9.273 54.8027,10.85 C 54.8027,10.85 58.3271,12.519 58.3271,12.519 C 58.3271,12.519 62.6846,13.724 62.6846,13.724 C 63.2871,14.976 63.334,16.413 64.0752,17.619 C 63.9365,19.66 65.5127,21.05 65.4668,23.09 C 68.0166,30.555 67.4609,39.132 65.9297,47.014 C 65.0498,48.127 65.5127,50.075 63.9834,50.723 C 62.1748,49.888 61.5723,47.756 60.5517,46.179 C 60.3662,45.113 60.2744,44 59.625,43.119 C 59.1142,39.735 59.1142,36.675 59.2539,33.105 C 59.2539,33.105 59.625,28.283 59.625,28.283 C 59.5781,27.68 58.6973,27.494 58.1406,27.727 C 57.3066,27.773 57.3525,28.746 57.2139,29.21 C 57.1211,32.223 56.7041,35.655 56.8428,38.576 C 56.8887,39.318 56.1943,39.364 55.6367,39.596 C 52.2998,38.344 48.0801,39.318 45.4375,36.35 C 44.4639,35.145 43.165,33.986 43.3047,32.27 C 44.3242,31.621 45.8086,32.363 47.0137,31.992 C 47.0137,31.992 53.9678,31.806 53.9678,31.806 C 54.5713,31.436 54.4316,30.786 54.4316,30.23 C 54.4316,30.23 53.7832,29.674 53.7832,29.674 C 48.2187,29.627 42.2373,30.137 36.999,29.581 C 34.6338,28.514 32.5478,26.614 31.25,24.388 C 31.0644,22.951 32.6865,23.878 33.29,23.368 C 34.959,23.924 36.9062,22.579 38.668,23.461 C 40.708,22.765 42.0058,23.646 44.0459,23.09 C 45.4375,23.646 46.7812,22.765 48.5898,23.09 C 49.0078,22.765 49.5635,22.07 48.96,21.607 C 48.2656,20.632 46.8281,20.865 45.9004,20.956 C 43.5361,20.818 41.0322,20.725 38.5752,21.05 C 37.0449,20.401 35.6074,21.607 34.0312,20.956 C 32.6406,21.745 30.8789,20.539 29.5801,21.327 C 28.4678,21.282 27.2158,20.725 26.1494,21.327 C 22.7646,21.699 19.751,20.354 17.8965,17.711 C 17.1553,16.923 16.6904,15.671 17.1553,14.744 C 19.4267,14.002 21.374,14.976 23.6455,14.281 C 24.9902,14.652 26.2881,14.327 27.54,14.188 C 28.9316,14.744 30.5537,13.864 31.8057,14.466 C 34.0781,13.91 36.1182,14.327 38.4824,14.373 C 39.5488,13.446 42.0058,15.161 42.2842,13.26 C 42.331,12.704 41.9131,12.009 41.4502,11.962 C 40.1982,11.637 38.8535,12.519 37.6475,11.869 C 36.0254,12.658 34.2637,11.406 32.6406,12.241 C 30.6933,11.591 29.2558,12.75 27.4473,11.962 C 25.7783,12.612 24.0625,11.777 22.4404,12.333 C 20.7715,11.684 19.0557,12.75 17.3398,12.147 C 16.3662,12.333 15.2529,12.612 14.373,11.962 C 12.5644,11.36 10.293,12.055 8.8096,10.664 C 6.1201,9.829 3.8945,7.558 1.9473,5.657 C 1.9473,5.657 0,2.226 0,2.226 C 0.3711,1.345 1.5752,1.577 2.3174,1.298 C 4.3115,1.809 5.4248,1.067 7.418,1.577 C 9.5976,1.53 11.6377,1.205 13.5381,1.484 C 15.3467,0.649 16.6904,1.901 18.3594,1.113 C 19.5195,0.974 20.5859,1.809 21.6055,1.113 C 23.9707,1.715 26.0566,0.696 28.4678,0.927 C 33.6142,1.345 38.668,0.417 43.7685,1.021 C 44.5566,1.438 45.0664,2.086 45.3447,2.874 z M 134.457,1.113 C 134.133,4.405 131.861,7.835 128.801,9.366 C 126.715,10.572 124.164,10.293 121.939,11.498 C 113.779,12.889 104.923,12.287 96.3457,12.426 C 95.8357,12.379 95.5117,12.796 95.1407,13.167 C 95.4187,13.631 95.2797,14.42 95.9747,14.652 C 102.512,14.652 108.865,14.652 115.263,14.652 C 116.097,15.578 115.309,16.969 115.077,18.082 C 113.871,19.705 112.805,22.162 110.255,22.07 C 108.632,22.812 106.638,22.162 104.783,22.255 C 104.228,21.653 103.671,22.116 103.023,22.255 C 100.75,21.42 98.8957,22.672 96.5317,22.255 C 95.4187,22.672 94.0277,21.327 93.0077,22.348 C 90.3187,22.488 87.3507,21.977 84.7537,22.441 C 84.4297,22.626 84.3367,22.812 84.0127,23.09 C 84.0587,23.739 84.2437,24.619 85.0327,24.666 C 90.7357,24.619 96.4387,24.295 102.095,24.574 C 102.095,24.574 102.93,25.13 102.93,25.13 C 102.558,26.567 101.26,27.773 100.055,28.561 C 99.0807,28.607 98.2467,29.071 97.3657,29.488 C 91.8017,29.998 86.3777,29.256 80.7677,29.766 C 80.2097,29.952 80.1637,30.508 80.2097,31.065 C 80.3037,31.389 80.6277,31.899 81.0457,31.992 C 84.1057,32.177 87.3047,31.529 90.4107,32.177 C 90.0397,34.774 87.7687,36.49 85.5887,37.462 C 83.3647,38.112 81.3237,37.648 79.0047,38.204 C 78.5407,37.973 78.2177,37.648 77.9857,37.185 C 78.4027,33.986 78.8197,30.461 77.7067,27.541 C 77.7537,24.481 76.5947,21.607 76.2237,18.732 C 75.7127,17.062 74.5077,15.578 74.3687,13.91 C 75.2497,12.147 77.6147,13.214 78.8197,11.869 C 80.9517,11.684 82.3437,9.737 84.3837,9.366 C 87.5817,7.372 89.9927,3.709 92.6367,0.927 C 92.6367,0.927 94.0277,0.742 94.0277,0.742 C 94.0277,0.742 121.104,0.556 121.104,0.556 C 123.887,0.325 127.826,0.556 130.934,0.371 C 132.186,0.696 133.715,0 134.457,1.113 z"
           id="path46" />
      </g>
      <g
         transform="matrix(1.25,0,0,1.25,400.457,279.056)"
         id="g48"
         style="fill:#d10010;fill-rule:evenodd;stroke:none;stroke-width:1;stroke-linecap:butt;stroke-linejoin:miter;stroke-dasharray:none">
        <path
           d="M 6.212,2.689 C 6.306,4.126 6.908,5.563 6.398,7.046 C 5.471,7.186 4.45,7.046 3.616,7.51 C 2.457,5.192 1.391,2.411 0,0 C 1.993,1.066 4.498,0.973 6.212,2.689 z"
           id="path50" />
      </g>
      <g
         transform="matrix(1.25,0,0,1.25,294.861,246.774)"
         id="g52"
         style="fill:#ffffff;fill-rule:evenodd;stroke:none;stroke-width:1;stroke-linecap:butt;stroke-linejoin:miter;stroke-dasharray:none">
        <path
           d="M 9.7363,9.6906 C 8.4854,11.7776 6.3984,13.6306 3.9873,14.2336 C 3.8486,14.4186 3.6172,14.5586 3.3389,14.5116 C 2.9678,14.1416 2.874,13.4926 3.0596,13.0286 C 5.0078,10.2456 6.8926,7.4804 10.4785,5.6103 C 11.3594,6.9541 9.9229,8.2986 9.7363,9.6906 z M 30.1364,2.1787 C 29.1634,4.9609 26.5664,6.8613 23.7394,7.7431 C 22.4863,8.4386 19.6123,6.9541 19.2881,9.0406 C 19.2881,9.0406 19.4736,9.5966 19.4736,9.5966 C 22.1162,10.7096 25.1294,11.5446 26.7064,14.4186 C 27.3554,14.6976 27.9584,14.6976 28.5604,14.4186 C 28.5604,14.4186 29.7654,13.4926 29.7654,13.4926 C 30.2294,10.7556 29.4414,7.372 31.5284,5.4248 C 32.2694,4.497 33.2904,3.4306 34.5874,3.4775 C 35.8864,3.3847 36.6284,4.6367 37.8344,4.9609 C 42.1914,8.2986 45.5304,11.4986 46.9214,18.2216 C 47.1524,18.3606 47.0594,18.9626 47.0134,19.3336 C 46.3644,20.9106 45.5304,20.7716 43.6744,21.7446 C 41.4344,22.3936 40.2914,21.3736 39.5034,22.8576 C 39.5954,23.7856 38.3434,25.8716 40.2454,25.9176 C 43.0264,26.9846 45.3914,29.5346 45.3444,32.6876 C 45.1594,36.8136 41.7284,39.1776 39.0394,42.0526 C 37.6484,43.0736 36.3034,44.1386 34.6804,44.8336 C 31.0174,45.9006 28.5604,42.9796 26.6134,40.5696 C 25.6864,40.6616 24.7124,40.6156 24.0174,41.3106 C 24.0174,43.2116 23.3682,44.8336 22.9971,46.5966 C 21.2344,47.8016 19.1025,47.4316 16.3975,46.5036 C 13.3066,45.4986 14.543,45.8856 12.4258,44.7426 C 9.7363,42.9796 7.0479,41.0336 5.2852,38.4366 C 5.2852,38.4366 6.0273,36.2106 6.0273,36.2106 C 7.9287,33.5686 11.0352,32.7806 14.002,32.6876 C 15.0225,31.9916 14.79,30.5076 14.9297,29.3486 C 12.9824,27.9116 10.5244,26.7986 9.6436,24.3416 C 9.1797,24.1096 8.4854,23.1826 8.0674,24.0626 C 7.8359,25.6396 8.2529,27.6326 7.6963,29.3486 C 7.1865,29.9516 7.2334,30.7866 6.8623,31.4816 C 5.8887,32.8266 4.8682,33.9856 3.4316,34.8196 C 1.252,34.1236 1.7158,32.5176 1.0195,30.2766 C 0.0928,26.2886 0,22.0706 1.1133,18.1276 C 1.5762,17.7576 2.3184,17.6636 2.874,17.8506 C 4.4512,18.7316 5.9346,20.1686 6.8623,21.5596 C 7.3252,21.6526 7.7432,21.8376 8.0674,21.3736 C 8.8086,20.5386 8.2529,19.5656 8.5313,18.5916 C 8.8086,15.1616 11.1738,12.1936 14.1875,10.7096 C 15.2998,10.4316 16.46,10.2456 17.2471,9.3196 C 17.4795,8.4386 17.2471,7.8816 16.877,7.1865 C 15.3936,6.8154 14.0479,5.6562 13.0742,4.3115 C 13.2139,2.0869 14.543,2.8437 17.0625,1.7158 C 19.4893,1.1435 19.5654,0.9111 21.6992,0.6953 C 24.9744,0.6025 28.1894,0 30.1364,2.1787 z M 31.2504,17.7576 C 32.7804,19.9836 35.1444,21.2816 37.3704,22.3016 C 37.1844,23.1356 37.2774,24.1096 36.7204,24.8056 C 32.7334,24.6196 29.0244,26.0096 26.7984,29.3486 C 25.7324,30.5076 25.5464,32.0836 25.0364,33.5216 C 24.9904,35.1906 25.0834,36.7666 25.3144,38.3436 C 24.8514,38.7606 24.1564,38.6216 23.5537,38.8066 C 22.1621,36.8606 20.7246,35.0056 18.5459,33.7996 C 17.5723,33.6616 17.1553,33.1046 16.5986,32.3166 C 17.0156,31.4356 16.5518,30.1836 17.6182,29.7196 C 21.6523,29.7196 25.5014,27.6796 27.3554,23.9696 C 28.4674,22.1166 28.3294,19.6126 28.1894,17.3866 C 28.3294,16.8306 28.9314,16.2276 29.5804,16.0876 C 30.6004,16.0876 30.8794,17.0156 31.2504,17.7576 z"
           id="path54" />
      </g>
    </g>
  </g>
</svg>
