<?xml version="1.0" encoding="iso-8859-1"?>
<!-- Generator: Adobe Illustrator 10.0, SVG Export Plug-In . SVG Version: 3.0.0 Build 43)  -->
<!DOCTYPE svg PUBLIC "-//W3C//DTD SVG 1.0//EN"    "http://www.w3.org/TR/2001/PR-SVG-20010719/DTD/svg10.dtd" [
	<!ENTITY ns_flows "http://ns.adobe.com/Flows/1.0/">
	<!ENTITY ns_svg "http://www.w3.org/2000/svg">
	<!ENTITY ns_xlink "http://www.w3.org/1999/xlink">
]>
<svg  xmlns:xlink="&ns_xlink;" xmlns="http://www.w3.org/2000/svg" xmlns:a="http://ns.adobe.com/AdobeSVGViewerExtensions/3.0/"
	 width="565.14" height="565.139" viewBox="0 0 565.14 565.139" overflow="visible" enable-background="new 0 0 565.14 565.139"
	 xml:space="preserve">
	<g id="HQFL" stroke="#000000">
		<path fill="#FF0000" stroke="none" d="M82.765,82.772C29.393,136.136,0,207.103,0,282.578c0,75.474,29.393,146.426,82.765,199.781
			c53.364,53.402,124.331,82.78,199.805,82.78c75.482,0,146.433-29.378,199.805-82.78c53.356-53.355,82.765-124.308,82.765-199.781
			c0-75.475-29.408-146.441-82.765-199.806C429.003,29.393,358.052,0,282.57,0C207.096,0,136.128,29.393,82.765,82.772z"/>
		<path fill="#FFFFFF" stroke="none" d="M85.087,480.083C32.338,427.311,3.276,357.159,3.276,282.578
			c0-74.613,29.062-144.75,81.811-197.491C137.828,32.323,207.965,3.261,282.57,3.261c74.589,0,144.757,29.062,197.482,81.826
			c52.757,52.741,81.796,122.877,81.796,197.491c0,74.581-29.039,144.733-81.796,197.505
			c-52.725,52.726-122.893,81.78-197.482,81.78C207.965,561.863,137.828,532.808,85.087,480.083"/>
		<path fill="#FF0000" stroke="none" d="M282.57,8.952C131.453,8.952,8.967,131.46,8.967,282.578
			c0,151.086,122.485,273.609,273.603,273.609c151.109,0,273.618-122.523,273.618-273.609
			C556.188,131.46,433.679,8.952,282.57,8.952z M282.57,497.617c-118.787,0-215.047-96.269-215.047-215.039
			c0-118.771,96.261-215.056,215.047-215.056c118.763,0,215.047,96.284,215.047,215.056
			C497.617,401.348,401.333,497.617,282.57,497.617"/>
		<path fill="#FF0000" stroke="none" d="M73.128,282.578c0,115.479,93.946,209.44,209.441,209.44
			c115.472,0,209.433-93.962,209.433-209.44c0-115.495-93.961-209.449-209.433-209.449
			C167.075,73.128,73.128,167.083,73.128,282.578z M76.405,282.578c0-113.681,92.485-206.173,206.165-206.173
			c113.672,0,206.172,92.493,206.172,206.173c0,113.664-92.5,206.164-206.172,206.164C168.89,488.742,76.405,396.242,76.405,282.578
			"/>
		<path fill="#FF0000" stroke="none" d="M355.067,382.492c-3.199-0.293-3.307-0.938-3.307-5.03v-12.043
			c0-4.076,0.169-4.43,3.614-5.029l1-0.169l-0.185-1.416c-1.431,0.123-4.015,0.17-6.691,0.17c-2.537,0-5.414-0.047-6.552-0.17
			l-0.153,1.416l0.984,0.169c3.43,0.6,3.599,0.953,3.599,5.029v12.043c0,4.092-0.123,4.614-3.599,5.03l-1.6,0.184l0.184,1.4
			c1.139-0.093,4.6-0.17,7.137-0.17c2.677,0,5.876,0.077,7.275,0.17l0.17-1.4L355.067,382.492"/>
		<path fill="#FF0000" stroke="none" d="M372.663,358.143c-6.152,0-11.566,4.676-11.566,11.459c0,4.86,3.261,8.767,7.783,8.767
			c2.368,0,4.214-0.846,5.752-2.061l-0.369-1.076l-2.846,0.522c-3.938,0-6.121-4.906-6.121-8.552c0-4.076,2.354-7.075,6.014-7.075
			c5.752,0,7.045,6.122,7.045,10.09c0,10.689-6.322,17.257-9.414,19.595c-2.307,1.785-5.075,3.322-8.428,4.507l0.276,1.292
			c4.276-0.769,9.567-2.938,13.704-6.721c6.152-5.676,8.706-12.367,8.706-18.381C383.199,363.296,379.754,358.143,372.663,358.143"
			/>
		<path fill="#FF0000" stroke="none" d="M410.653,377.6c-1.414,2.83-2.737,2.876-5.906,2.876h-7.044l-1.107-0.8l4.614-5.045
			c3.537-3.845,5.322-6.075,5.322-9.628c0-4.015-2.953-6.86-7.645-6.86c-4.66,0-8.075,3.737-9.459,6.63l1.199,0.892
			c1.538-2.491,3.477-4.091,6.029-4.091c3.199,0,5.199,2.138,5.199,5.752c0,3.707-2.969,7.137-6.092,10.443
			c-2.368,2.492-4.244,4.015-5.967,5.307l0.369,1c1.23-0.093,3.291-0.17,5.26-0.17h5.845c3.353,0,5.845,0.077,8.028,0.17
			c0.708-1.646,1.723-3.769,2.77-6.014L410.653,377.6"/>
		<path fill="#FF0000" stroke="none" d="M430.557,358.036c-0.661,0.399-1.046,0.6-3.229,0.892l-4.138,0.601
			c-1.907,0.276-3.062,0.461-3.846,0.692c-0.769,0.23-1.83,2.015-2.599,3.86c-0.785,1.769-1.293,3.722-1.293,4.706
			c0,2.062,2.123,3.246,4.676,5.092c2.523,1.83,4.769,4.49,4.769,8.197c0,6.506-6.152,10.859-9.382,11.89l0.445,1.646
			c4.322-1.292,13.074-6.721,13.074-14.889c0-4.676-2.723-8.044-6.568-10.689l-2.768-1.892c-1.662-1.139-2-1.784-1.662-2.83
			c0.246-0.954,0.585-1.415,2.308-1.661l7.49-1.062c1.892-0.246,2.969-2.461,3.368-3.784L430.557,358.036"/>
		<path fill="#FF0000" stroke="none" d="M426.343,285.361c3.106,0.4,7.566,1.631,10.535,2.185
			c4.906,0.953,27.732-2.953,35.884-12.397c-6.491-9.89-19.411-23.548-47.772-25.225c7.044-2.261,23.286-22.348,24.501-33.269
			c-6.476-5.891-17.149-6.752-25.009-8.429c2.522-17.149-11.367-27.854-13.15-29.377c-0.615-1.738-1.662-26.409-33.331-34.33
			c-0.892-0.231-8.459-18.057-27.424-26.763c-29.285-13.474-51.749-3.307-56.647-2.015c-45.074-6.967-55.925,14.012-58.955,17.042
			c-1.384,1.385-18.049-1.784-33.907,15.873c-4.268-0.446-22.348-10.243-28.631-8.705c-2.507,7.075,0.8,34.207,2.184,39.298
			c-15.15,3.399-40.298-6.46-45.974-1.461c-1.838,11.043,8.175,24.102,8.175,24.317c-11.605-1.215-33.738,0.154-40.683,5.429
			c-1.492,1.461,2.553,10.397,8.414,16.15c6.298,6.183,16.534,11.458,29.908,12.551c0,0.215-24.148,14.766-32.208,25.363
			c2.392,1.461,19.434,6.445,21.164,6.999c9.421,2.983,35.769-5.83,36.214-5.83c-1.484,7.213-6.368,26.347-6.521,30.008
			c0.223,5.553,11.074,13.196,14.997,15.643c0.046,12.335-1.23,48.234-1.23,48.234c-0.062,5.49-0.823,13.258,0.63,17.626
			c5.322,1,25.402-4.276,26.178-3.737c1.931,2.799,2.107,12.012,3.191,15.565c3.515,0.83,6.068,2.599,9.89,2.983
			c1.007,3.184-1.684,8.537,0.069,11.382c1.399,3.999,7.875,5.045,11.651,6.583c0,7.198,0.269,14.351,0.269,21.549
			c1.861,3.83,16.112,9.028,20.049,11.305l31.123-30.162c5.829,5.814,9.905,10.383,14.004,17.119
			c-4.683,13.428-22.117,37.637-23.263,39.113l4.583,5.537c6.152-7.306,8.505-10.689,14.097-20.24
			c5.575-9.567,8.567-14.505,13.366-26.271c-5.245-6.721-11.306-13.15-16.266-19.303c2.615-7.598,6.044-9.859,10.144-17.149
			c-1.753-1.153-2.945-2.062-5.275-1.753c-14.889,17.487-26.701,28.67-43.051,43.851c-2.107-1.554-8.99-3.907-11.305-5.122
			c-0.823-4.521,0.9-19.227-0.661-21.718c-1.815-4.568-7.921-4.061-11.559-6.629l-1.169-0.738
			c0.538-15.981-0.092-11.828-10.175-16.843l-0.869-3.152c0.054-4.969-0.362-13.797-1.669-17.643
			c-4.545,0.231-22.995,5.769-26.017,7.353l-0.738-0.107l-0.208-0.677v-1.508c0-12.704-0.031-28.885,1.469-40.528
			c0.484-3.784,0.738-7.659,1.223-10.997c0.3-2.431,0.4-3.553,1.308-5.215c11.22,0.216,20.718,3.415,31.315,4.553
			c4.568-4.768,10.851-7.782,16.304-11.735c3.791-2.753,8.567-5.983,11.743-8.475l0.646-1.308c0.031-0.522-0.362-4.137-1.308-5.875
			c-3.607,0.123-11.813,3.476-16.958,5.229c-8.759,2.999-17.88,4.829-26.101,7.167c-6.175,1.77-13.527,4.368-18.918,5.215
			c-4.799-0.216-10.19-4.999-11.728-8.476c-2.476-5.66,6.298-27.332,4.553-36.514c8.452-8.46,12.52-14.074,16.312-15.673
			c-6.06,9.813-8.99,19.257-9.275,31.023c10.144-1.338,22.395-1.876,32.6-5.737c16.496-6.214,23.01-13.705,28.87-21.364
			c4.007,22.256,11.974,29.454,17.734,47.157c12.258,0.554,21.31-34.114,21.533-34.114c5.183,20.318,12.143,24.286,14.881,37.176
			c4.853-0.724,9.328-11.229,12.197-11.782c0.538,2.308,0.769,3.292,1.461,5.229c20.902-1.691,36.576-18.165,36.791-18.165
			c-9.274,22.518,11.259,52.064,13.474,54.079c7.937-3.322,17.812-17.749,19.595-19.58c3.877,8.567,8.952,16.535,16.273,21.533
			c3.537,2.415,6.521,3.984,10.197,6.275c3.676-3.307,6.322-14.796,8.229-17.057c9.168,10.074,28.363,20.918,42.175,15.889
			C450.49,331.796,448.183,298.281,426.343,285.361z M440.139,220.362c-1.368,4.045-4.337,5.921-7.183,8.475
			c-22.226,19.872-29.285,14.812-53.494,11.751C394.073,216.055,428.157,213.117,440.139,220.362z M355.405,172.62
			c7.783,22.764-3.998,51.418-45.927,58.017c0-0.231,36.545-16.643,38.099-40.298c-3.984-1.431-11.397-2.876-11.274-2.646
			C340.594,181.048,350.253,173.865,355.405,172.62z M178.311,147.548c7.098,1.338,26.709,11.397,31.023,15.843
			c4.053,4.184,5.652,11.505,7.213,17.872c2.146,8.798,2.238,19.195-0.831,24.133c-10.774-1.123-31.27-21.164-34.73-33.838
			C177.534,158.884,177.911,153.839,178.311,147.548z M105.782,212.41c4.707-5.86,34.661-5.537,39.921-2.261
			c4.038,2.507,12.851,8.875,18.003,10.489c-2.238,4.03-15.166,8.26-24.048,8.106C127.246,228.498,111.48,221.577,105.782,212.41z
			 M151.456,257.337c-3.638,1.723-8.683,1.814-12.443,2.353c-7.137,1-14.604-2.2-20.195-3.476
			c0.016-0.646,25.394-19.288,40.352-24.81c3.199-1.199,17.327-1.892,20.241-0.261C177.303,238.126,158.131,254.184,151.456,257.337
			z M174.95,220.084c-12.582-4.199-35.86-24.655-38.791-36.898c9.259,0.4,15.55,1.723,22.902,3.799
			c11.105,1.492,17.465,1.846,28.208,10.274c5.383,4.23,11.274,14.966,11.813,19.288
			C195.322,219.423,182.579,222.623,174.95,220.084z M209.257,257.629c-6.883,3.445-16.365,3.03-26.793,5.752
			c9.528-43.712,42.589-46.127,50.418-46.204C232.989,228.206,228.706,247.909,209.257,257.629z M230.721,198.444
			c-11.066-18.104-11.29-33.115-1.953-53.756c11.42,1.522,34.907,37.252,13.058,64.615
			C237.465,207.088,233.543,203.027,230.721,198.444z M256.884,281.608c-2.646-11.074-9.89-19.072-12.682-30.777
			c-0.831-3.43-2.215-9.659-0.469-14.766c2.284-6.629,6.237-13.351,10.067-18.134C268.412,224.314,273.772,267.366,256.884,281.608z
			 M255.999,205.781c1.531-19.441,23.233-37.684,53.141-40.944c-0.661,18.272-17.779,36.714-32.899,40.944
			C269.865,206.519,257.076,206.426,255.999,205.781z M291.96,286.253c-2.223-10.459-17.673-35.653-13.182-50.08
			c1.177-3.846,2.484-7.937,4.191-12.09c6.599,2.953,14.973,16.781,16.627,22.18C304.587,262.582,295.313,284.9,291.96,286.253z
			 M298.573,220.362c-5.875-1.354-11.589-3.984-15.088-6.521c15.465-16.335,39.959-26.594,54.233-20.888
			c-3.322,9.598-13.551,19.072-23.194,23.087C311.97,217.101,302.957,221.392,298.573,220.362z M307.187,281.578
			c1.584-11.751,4.63-29.809,12.813-35.314c5.337-3.6,16.427-6.783,22.271-7.583C346.377,250.477,328.92,280.178,307.187,281.578z
			 M355.468,314.169c-1.984-4.184-5.568-9.105-7.414-13.335c-4.245-9.613-1.907-28.901,2.199-37.791
			c3-6.429,9.705-9.136,13.643-14.458C377.739,261.844,360.481,311.939,355.468,314.169z M337.733,230.805
			c11.382-5.829,17.35-17.288,27.393-24.148c16.812-11.474,31.439-8.998,34.576-5.86c-3.66,6.906-14.304,19.487-21.533,25.439
			C365.096,233.866,341.44,234.558,337.733,230.805z M397.733,322.783c-6.306-1.969-12.597-9.49-15.657-13.704
			c-9.982-14.827-5.876-33.361,1.938-46.974c2.491,2.015,5.352,5.66,7.844,9.152C404.471,288.791,401.487,299.419,397.733,322.783z
			 M400.241,261.598c13.335-16.596,63.677,5.045,63.677,12.366c-8.845,3.845-15.228,3.922-22.364,4.583
			C425.173,280.07,402.502,264.597,400.241,261.598z M410.177,284.9c6.168,0.723,13.243,5.091,16.827,8.859
			c7.506,7.921,15.319,20.979,17.765,33.822C423.39,326.797,410.192,306.709,410.177,284.9z"/>
		<path fill="#FFFFFF" stroke="none" d="M121.64,97.099c5.399,5.561,4.722,13.766-0.708,19.026
			c-5.768,5.645-13.643,5.737-19.042,0.185c-5.391-5.568-4.729-13.773,0.708-19.049C108.358,91.655,116.233,91.562,121.64,97.099z
			 M126.792,92.078c-8.144-8.344-20.272-8.221-29,0.269c-8.283,8.044-9.198,20.595-1.054,28.978
			c8.144,8.382,20.272,8.244,28.993-0.246C134.021,113.003,134.929,100.476,126.792,92.078"/>
		<path fill="#FFFFFF" stroke="none" d="M168.005,88.878l-22.548-15.181l4.93,26.778l-6.868,1.261l-7.375-40.306l1.7-1.123
			l34.022,22.825L168.005,88.878"/>
		<path fill="#FFFFFF" stroke="none" d="M185.178,61.708l6.36,13.943l-6.268,2.853l-6.345-13.943l-20.479-14.112l4.268-5.322
			l16.211,11.136l2.246-19.534l6.806,0.269L185.178,61.708"/>
		<path fill="#FFFFFF" stroke="none" d="M245.563,60.424l-8.383-25.425l-8.975,17.704l-1.2,0.284l-15.919-11.843l3.853,26.493
			l-6.783,0.977l-5.691-39.159l2.492-1.215l20.472,15.327l11.482-22.848h2.776l12.374,37.544L245.563,60.424"/>
		<path fill="#FFFFFF" stroke="none" d="M287.392,56.732l-0.407-31.592l-16.85,0.223l0.408,31.593l-6.868,0.077l-0.507-38.221
			l30.607-0.393l0.5,38.222L287.392,56.732"/>
		<path fill="#FFFFFF" stroke="none" d="M308.232,58.324l5.03-37.891l6.828,0.892l-5.045,37.898L308.232,58.324"/>
		<path fill="#FFFFFF" stroke="none" d="M350.022,54.563l-10.367-2.853l8.367-10.251L350.022,54.563z M359.097,68.106l-6.121-40.713
			l-1.953-0.538l-26.117,31.831l5.43,4.415l4.707-5.783l16.072,4.445l1.077,7.368L359.097,68.106"/>
		<path fill="#FFFFFF" stroke="none" d="M387.721,83.026L380.2,58.309l-8.198,17.265l-6.198-2.961l16.396-34.545l6.214,2.968
			l-5.568,11.712l17.289-6.145l7.752,3.691l-20.642,7.337l8.967,29.438L387.721,83.026"/>
		<path fill="#FFFFFF" stroke="none" d="M434.494,90.962c-4.491,6.298-12.689,7.083-18.826,2.691
			c-6.583-4.66-8.091-12.396-3.584-18.695c4.491-6.298,12.689-7.106,18.842-2.707C437.478,76.927,439.001,84.641,434.494,90.962z
			 M440.354,95.115c6.783-9.498,4.476-21.418-5.43-28.47c-9.413-6.713-21.902-5.375-28.686,4.138
			c-6.798,9.498-4.506,21.402,5.43,28.478C421.052,105.982,433.571,104.628,440.354,95.115"/>
		<path fill="#FFFFFF" stroke="none" d="M432.71,114.542l2.738-2.677l18.826-4.152l2.384-15.827l3.769-3.714l17.134,17.388
			l-4.769,4.706l-10.228-10.39l-2.015,13.635l-16.059,3.507l10.782,10.92l-4.722,4.676L432.71,114.542"/>
		<path fill="#FFFFFF" stroke="none" d="M57.786,142.427l1.892,1.061l10.698,18.534l17.688-1.815l2.738,1.538l-11.513,20.657
			l-3.214-1.8l8.759-15.704l-16.789,1.677l-9.913-17.181l-9.183,16.473l-3.222-1.784L57.786,142.427"/>
		<path fill="#FFFFFF" stroke="none" d="M48.558,195.414l-13.812-5.229l1.53-4.014l13.781,5.229l25.956-5.707l1.053,4.215
			l-23.517,5.106l14.227,19.364l-3.561,2.477L48.558,195.414"/>
		<path fill="#FFFFFF" stroke="none" d="M21.987,291.251l0.208-23.425l26.44,11.936L21.987,291.251z M19.403,297.066l37.768-16.427
			l0.023-1.538l-37.345-17.058l-1.307,1.338l-0.285,32.346L19.403,297.066"/>
		<path fill="#FFFFFF" stroke="none" d="M19.911,311.478l37.83-5.568l2.776,18.919l-3.653,0.522l-2.161-14.643l-10.805,1.584
			l1.969,13.566l-3.638,0.523l-2-13.566l-16.05,2.354l2.469,16.842l-3.638,0.554L19.911,311.478"/>
		<path fill="#FFFFFF" stroke="none" d="M26.132,346.469l2.061-0.646l20.795,5.137l10.943-13.996l2.992-0.924l6.944,22.626
			l-3.545,1.076l-5.26-17.227l-10.405,13.289l-19.265-4.783l5.514,18.058l-3.515,1.061L26.132,346.469"/>
		<path fill="#FFFFFF" stroke="none" d="M55.317,418.575l26.855-17.088l-25.001-1.938l-0.938-1.814l12.72-21.595l-29.4,12.196
			l-1.654-3.983l36.699-15.227l1.192,2.707L61.424,396.15l28.208,2.215l1.515,2.537L57.632,422.25L55.317,418.575"/>
		<path fill="#FFFFFF" stroke="none" d="M105.636,451.659c-7.198,6.061-17.011,4.507-22.902-2.491
			c-6.298-7.49-5.729-16.95,1.469-22.994c7.198-6.061,16.996-4.507,22.902,2.491C113.388,436.155,112.834,445.615,105.636,451.659z
			 M108.397,454.935c8.944-7.506,9.682-19.596,1.853-28.916c-7.429-8.859-19.887-10.674-28.823-3.138
			c-8.944,7.521-9.683,19.61-1.854,28.946C87.018,460.641,99.46,462.472,108.397,454.935"/>
		<path fill="#FFFFFF" stroke="none" d="M103.429,475.869l1.377-1.646l20.233-7.06l1.5-17.733l2.015-2.415l18.157,15.165
			l-2.361,2.861l-13.827-11.566l-1.446,16.811l-18.749,6.537l14.497,12.09l-2.384,2.83L103.429,475.869"/>
		<path fill="#FFFFFF" stroke="none" d="M201.82,512.505c-2.899,6.737-11.244,8.429-19.618,5.63l10.205-23.718
			C200.659,498.694,204.704,505.799,201.82,512.505z M205.773,514.212c3.638-8.475-1.307-17.979-11.858-23.302l0.708-1.614
			l-4.015-1.738l-0.723,1.691c-10.567-3.753-21.295-1.061-24.933,7.414c-3.653,8.475,1.246,17.918,11.736,23.24l-1.185,2.784
			l4.015,1.723l1.184-2.784C191.346,525.349,202.136,522.703,205.773,514.212z M178.195,516.413
			c-8.137-4.229-12.189-11.32-9.29-18.042c2.884-6.722,11.243-8.413,19.464-5.629L178.195,516.413"/>
		<path fill="#FFFFFF" stroke="none" d="M212.879,535.854l9.636-37.007l4.176,1.092l-9.651,36.991L212.879,535.854"/>
		<path fill="#FFFFFF" stroke="none" d="M259.468,545.636l-8.329-32.162l-16.38,29.024l-3.591-2.276l20.457-36.068l1.515,0.23
			l10.42,40.236L259.468,545.636"/>
		<path fill="#FFFFFF" stroke="none" d="M297.958,533.347l-15.665,0.492l7.19-18.812L297.958,533.347z M307.587,544.098
			l-17.565-38.007l-1.546,0.047l-15.119,38.944l3.938,1.646l3.576-9.151l18.741-0.585l4.084,8.783L307.587,544.098"/>
		<path fill="#FFFFFF" stroke="none" d="M397.058,520.196l-23.579-23.409l0.753,33.314l-4.26-0.123l-0.815-41.42l1.399-0.601
			l29.516,29.255L397.058,520.196"/>
		<path fill="#FFFFFF" stroke="none" d="M433.909,492.28l7.521-5.015l2.046,3.062l-12.12,8.09l-2.846-4.307
			c3.153-4.983,5.753-13.827,1.938-19.549c-4.938-7.413-14.966-7.675-22.011-2.969c-7.074,4.707-10.643,14.043-5.706,21.472
			c3.83,5.722,12.997,6.706,18.812,5.676l2.876,4.307l-12.136,8.09l-2.046-3.076l7.521-4.998c-6.998,0.461-14.581-1.6-18.58-7.629
			c-6.491-9.705-1.522-21.61,6.968-27.271s21.395-5.706,27.885,4.015C438.063,478.222,437.032,485.974,433.909,492.28"/>
		<path fill="#FFFFFF" stroke="none" d="M519.565,395.426l-30.562-16.104l-9.382,17.796l30.576,16.088l-1.999,3.814l-33.838-17.811
			l13.382-25.409l33.807,17.826L519.565,395.426"/>
		<path fill="#FFFFFF" stroke="none" d="M529.056,372.74l-36.299-11.981l5.998-18.165l3.508,1.169l-4.646,14.073l10.366,3.43
			l4.307-13.027l3.508,1.169l-4.307,12.997l15.427,5.106l5.337-16.165l3.477,1.153L529.056,372.74"/>
		<path fill="#FFFFFF" stroke="none" d="M539.114,337.58l-37.406-7.783l0.861-4.229l37.438,7.798L539.114,337.58"/>
		<path fill="#FFFFFF" stroke="none" d="M517.781,292.775c3.969,0.354,6.783,4.799,6.398,9.136l-0.554,6.138l-14.381-1.277
			l0.6-6.752C510.291,295.066,513.183,292.359,517.781,292.775z M518.166,288.499c-6.614-0.6-11.32,3.846-11.997,11.136
			l-0.984,11.074l38.067,3.415l0.385-4.292l-16.335-1.477l0.555-6.152C528.44,295.528,524.149,289.022,518.166,288.499"/>
		<path fill="#FFFFFF" stroke="none" d="M533.055,260.044l0.831,15.657l-18.949-6.813L533.055,260.044z M543.606,250.185
			l-37.622,18.38l0.093,1.554l39.236,14.258l1.584-3.953l-9.229-3.384l-1.016-18.718l8.69-4.292L543.606,250.185"/>
		<path fill="#FFFFFF" stroke="none" d="M541.392,237.126l-37.622,6.768l-0.769-4.229l37.637-6.783L541.392,237.126"/>
		<path fill="#FFFFFF" stroke="none" d="M523.919,187.339l-2.953-8.537l3.476-1.215l4.799,13.766l-4.892,1.692
			c-4.029-4.322-11.936-9.06-18.441-6.799c-8.413,2.907-11.182,12.536-8.397,20.549c2.784,8.029,10.936,13.828,19.364,10.905
			c6.49-2.246,9.752-10.874,10.244-16.78l4.859-1.692l4.784,13.766l-3.491,1.215l-2.969-8.537
			c-1.308,6.891-5.184,13.72-12.028,16.104c-11.028,3.83-21.302-3.999-24.655-13.628c-3.354-9.628-0.154-22.133,10.874-25.963
			C511.368,179.802,518.597,182.74,523.919,187.339"/>
		<path fill="#FFFFFF" stroke="none" d="M517.274,163.083l-1.877,1.061l-21.41-0.523l-7.66,16.073l-2.707,1.538l-11.689-20.61
			l3.23-1.8l8.859,15.673l7.306-15.196l19.826,0.477l-9.29-16.427l3.199-1.815L517.274,163.083"/>
		<path fill="#FFFFFF" stroke="none" d="M20.918,242.294l0.108,0.016l30.592-14.735l-26.793-7.598l1.354-4.061l37.483,10.721
			l-35.199,17.195l29.955,5.768l-0.831,4.214l-37.491-7.291L20.918,242.294"/>
		<path fill="#FFFFFF" stroke="none" d="M351.222,516.49c1.938,9.182-4.029,17.118-12.98,19.01
			c-9.552,2.046-17.627-2.891-19.564-12.089c-1.969-9.198,4.014-17.119,12.95-19.011
			C341.179,502.354,349.253,507.307,351.222,516.49z M355.405,515.597c-2.398-11.428-12.734-17.75-24.624-15.212
			c-11.29,2.384-18.749,12.505-16.319,23.917c2.43,11.413,12.735,17.75,24.641,15.228
			C350.392,537.13,357.836,527.009,355.405,515.597"/>
		<path fill="#FFFFFF" stroke="none" d="M346.608,519.427l-22.533,4.783l-0.815-3.737l22.548-4.799L346.608,519.427"/>
		<path fill="#FFFFFF" stroke="none" d="M476.546,459.303l-0.077-0.077l-33.638-4.737l18.057,21.195l-3.399,2.63l-25.193-29.746
			l38.821,5.291l-21.688-21.473l3.03-3.029l27.101,26.916L476.546,459.303"/>
	</g>
</svg>
