<?xml version="1.0" encoding="utf-8"?>
<!-- Generator: Adobe Illustrator 13.0.2, SVG Export Plug-In . SVG Version: 6.00 Build 14948)  -->
<!DOCTYPE svg PUBLIC "-//W3C//DTD SVG 1.0//EN" "http://www.w3.org/TR/2001/REC-SVG-20010904/DTD/svg10.dtd">
<svg version="1.0" id="Ebene_1" xmlns="http://www.w3.org/2000/svg" xmlns:xlink="http://www.w3.org/1999/xlink" x="0px" y="0px"
	 width="366.947px" height="439.368px" viewBox="0 0 366.947 439.368" enable-background="new 0 0 366.947 439.368"
	 xml:space="preserve">
<path fill-rule="evenodd" clip-rule="evenodd" fill="#F8C700" d="M183.433,439.368c-3.997-7.095-7.666-13.784-13.212-19.819
	c-4.894-5.298-10.685-10.112-17.209-14.517c-11.338-7.583-24.795-13.945-39.231-19.575c-5.873-2.28-12.235-4.487-18.433-6.689
	c-17.047-5.869-33.359-11.499-49.346-22.671c-14.68-10.361-26.344-23.081-34.255-38.413c-7.503-14.521-11.581-31.406-11.745-50.732
	c-0.164-28.057,8.237-63.374,16.638-98.608c7.504-31.482,15.009-62.965,16.068-88.33c0.407-10.44-3.997-18.271-8.237-25.774
	c-1.714-3.018-3.426-5.955-5.058-8.971L58.889,0c15.986,3.915,32.054,7.096,48.367,9.38c24.794,3.507,50.486,5.301,76.177,5.301
	c25.69,0,51.384-1.794,76.26-5.301c16.313-2.284,32.38-5.465,48.284-9.38l39.475,45.267c-1.548,3.099-3.262,5.954-4.973,8.971
	c-4.244,7.503-8.648,15.333-8.238,25.774c1.061,25.365,8.563,56.848,16.067,88.33c8.401,35.234,16.802,70.552,16.638,98.608
	c-0.163,19.326-4.24,36.211-11.745,50.732c-7.91,15.332-19.575,28.052-34.336,38.413c-15.905,11.172-32.3,16.802-49.263,22.671
	c-6.281,2.202-12.561,4.409-18.436,6.689c-14.436,5.63-27.893,11.992-39.229,19.575c-6.525,4.404-12.396,9.219-17.209,14.517
	C191.182,425.583,187.43,432.273,183.433,439.368L183.433,439.368z"/>
<path fill-rule="evenodd" clip-rule="evenodd" d="M62.804,12.152L32.709,46.653c0.407,0.733,0.815,1.469,1.223,2.203
	c5.058,8.89,10.195,18.105,9.706,31.563c-1.143,26.427-8.727,58.398-16.394,90.452c-8.237,34.582-16.475,69.244-16.312,96.08
	c0.163,17.534,3.833,32.705,10.521,45.757c7.096,13.701,17.537,25.117,30.83,34.419c14.681,10.273,30.342,15.737,46.572,21.367
	c6.035,2.036,12.152,4.16,18.84,6.851h0.081c15.007,5.791,29.199,12.559,41.271,20.635c9.706,6.523,18.106,13.945,24.386,22.51
	V25.61C142.245,25.61,100.894,21.125,62.804,12.152L62.804,12.152z"/>
<path fill-rule="evenodd" clip-rule="evenodd" fill="#D42D3F" d="M183.433,418.489c6.362-8.564,14.681-15.903,24.468-22.427
	c12.072-8.159,26.265-14.844,41.27-20.718c6.772-2.69,12.889-4.814,18.924-6.851c16.23-5.63,31.889-11.094,46.572-21.367
	c13.293-9.302,23.732-20.718,30.83-34.419c6.687-13.052,10.358-28.223,10.52-45.757c0.164-26.836-8.074-61.498-16.311-96.08
	c-7.666-32.054-15.252-64.025-16.395-90.452c-0.571-13.457,4.648-22.673,9.705-31.563c0.407-0.734,0.814-1.47,1.225-2.203
	l-30.098-34.501c-38.171,8.973-79.44,13.458-120.71,13.458V418.489L183.433,418.489z"/>
<path fill-rule="evenodd" clip-rule="evenodd" fill="#FFFFFF" d="M270.295,318.005v-17.534h5.221c0.898,0,1.631,0.083,2.365,0.327
	c0.652,0.161,1.223,0.488,1.714,0.898c0.488,0.405,0.896,0.894,1.14,1.548c0.247,0.571,0.328,1.221,0.328,1.958
	c0,0.488,0,0.898-0.164,1.304c-0.08,0.405-0.244,0.732-0.488,1.06c-0.246,0.327-0.49,0.571-0.815,0.815
	c-0.163,0.083-0.247,0.166-0.407,0.244c0.324,0.166,0.568,0.244,0.896,0.41c0.488,0.244,0.898,0.654,1.306,1.06
	c0.325,0.405,0.652,0.815,0.816,1.304c0.16,0.571,0.244,1.06,0.244,1.631c0,0.737-0.164,1.47-0.408,2.041
	c-0.246,0.571-0.652,1.143-1.223,1.548c-0.572,0.488-1.224,0.815-1.959,1.064c-0.734,0.161-1.55,0.322-2.445,0.322H270.295
	L270.295,318.005z"/>
<path fill-rule="evenodd" clip-rule="evenodd" fill="#D42D3F" d="M273.313,307.732h1.307c0.571,0,1.06-0.083,1.548-0.166
	c0.407-0.078,0.735-0.244,0.979-0.488c0.246-0.166,0.41-0.41,0.57-0.654c0.164-0.322,0.164-0.649,0.164-1.06
	c0-0.732-0.164-1.221-0.571-1.548c-0.163-0.166-0.407-0.327-0.735-0.41c-0.407-0.078-0.814-0.078-1.303-0.078h-1.959V307.732
	L273.313,307.732z"/>
<path fill-rule="evenodd" clip-rule="evenodd" fill="#D42D3F" d="M273.313,310.583v4.57h2.854c0.571,0,1.062-0.083,1.47-0.166
	s0.652-0.244,0.896-0.405c0.244-0.166,0.407-0.41,0.57-0.654c0.084-0.327,0.164-0.654,0.164-1.06c0-0.41-0.08-0.732-0.244-1.06
	c-0.083-0.244-0.327-0.493-0.571-0.654c-0.247-0.244-0.571-0.327-1.06-0.488c-0.408-0.083-0.979-0.083-1.551-0.083H273.313
	L273.313,310.583z"/>
<path fill-rule="evenodd" clip-rule="evenodd" fill="#FFFFFF" d="M251.619,300.471h3.018V310.5c0,0.981,0.08,1.797,0.163,2.207
	c0.081,0.161,0.161,0.322,0.244,0.566c0.081,0.166,0.163,0.327,0.327,0.41c0.244,0.327,0.488,0.571,0.732,0.732
	c0.327,0.249,0.571,0.41,0.898,0.488c0.324,0.166,0.652,0.249,1.06,0.327c0.327,0.083,0.735,0.083,1.143,0.083
	c0.732,0,1.304-0.083,1.875-0.244c0.571-0.166,1.062-0.405,1.468-0.815c0.407-0.327,0.654-0.732,0.898-1.143
	c0.163-0.488,0.324-0.977,0.324-1.548v-11.094h3.018v11.172c0,1.958-0.732,3.589-2.119,4.814c-0.734,0.571-1.551,1.06-2.446,1.387
	c-0.898,0.244-1.878,0.405-3.018,0.405c-0.654,0-1.306-0.078-1.878-0.161c-0.57-0.083-1.143-0.327-1.711-0.571
	c-0.49-0.161-1.06-0.488-1.467-0.815c-0.491-0.327-0.898-0.732-1.227-1.226c-0.244-0.244-0.407-0.571-0.57-0.894
	c-0.162-0.327-0.325-0.654-0.406-0.981c-0.082-0.327-0.163-0.732-0.246-1.304c0-0.488-0.08-1.06-0.08-1.714V300.471L251.619,300.471
	z"/>
<polygon fill-rule="evenodd" clip-rule="evenodd" fill="#FFFFFF" points="239.221,318.005 239.221,300.471 242.238,300.471 
	242.238,315.154 250.232,315.154 250.232,318.005 239.221,318.005 "/>
<path fill-rule="evenodd" clip-rule="evenodd" fill="#FFFFFF" d="M236.367,313.03v3.511l-0.164,0.078
	c-0.488,0.327-0.979,0.488-1.55,0.737c-0.488,0.161-0.979,0.327-1.55,0.488c-0.488,0.161-1.061,0.244-1.549,0.327
	c-0.57,0.078-1.062,0.078-1.55,0.078c-0.491,0-0.979,0-1.468-0.078c-0.49-0.083-0.898-0.166-1.387-0.327
	c-0.49-0.083-0.898-0.244-1.306-0.488c-0.407-0.166-0.815-0.41-1.224-0.654c-0.651-0.41-1.223-0.898-1.794-1.47
	c-0.491-0.488-0.896-1.143-1.306-1.792c-0.325-0.654-0.569-1.304-0.732-2.041c-0.247-0.732-0.328-1.465-0.328-2.202
	c0-0.649,0.081-1.221,0.164-1.792c0.164-0.571,0.327-1.143,0.571-1.631c0.244-0.571,0.488-1.06,0.896-1.553
	c0.328-0.488,0.654-0.977,1.143-1.387c0.408-0.405,0.979-0.815,1.468-1.138c0.491-0.327,1.062-0.571,1.634-0.815
	c0.568-0.249,1.221-0.41,1.791-0.493c0.654-0.078,1.307-0.161,2.041-0.161c0.488,0,0.977,0,1.468,0.083
	c0.491,0.078,0.979,0.161,1.387,0.244c0.488,0.078,0.979,0.244,1.468,0.405c0.49,0.166,1.062,0.41,1.55,0.654l0.163,0.083v3.34
	l-0.407-0.244c-0.571-0.327-1.062-0.571-1.55-0.732c-0.488-0.244-0.979-0.41-1.468-0.488c-0.407-0.166-0.898-0.244-1.306-0.327
	c-0.408-0.083-0.896-0.083-1.305-0.083c-1.877,0-3.425,0.571-4.65,1.714c-0.652,0.571-1.06,1.226-1.387,1.958
	c-0.324,0.732-0.408,1.548-0.408,2.446c0,0.815,0.084,1.631,0.408,2.363c0.327,0.737,0.734,1.387,1.387,1.958
	c0.571,0.571,1.226,0.981,1.958,1.304c0.815,0.249,1.631,0.41,2.529,0.41c0.488,0,0.979,0,1.468-0.083
	c0.49-0.078,0.898-0.244,1.387-0.405c0.49-0.161,0.979-0.327,1.55-0.571c0.488-0.244,0.979-0.571,1.468-0.898L236.367,313.03
	L236.367,313.03z"/>
<polygon fill-rule="evenodd" clip-rule="evenodd" fill="#FFFFFF" points="197.869,318.005 197.869,300.471 200.887,300.471 
	200.887,315.154 208.879,315.154 208.879,318.005 197.869,318.005 "/>
<polygon fill-rule="evenodd" clip-rule="evenodd" fill="#FFFFFF" points="184.819,318.005 184.819,300.471 187.837,300.471 
	187.837,315.154 195.83,315.154 195.83,318.005 184.819,318.005 "/>
<polygon fill-rule="evenodd" clip-rule="evenodd" fill="#FFFFFF" points="166.306,318.005 166.469,317.517 173.81,300.715 
	173.891,300.471 176.093,300.471 176.174,300.715 183.433,317.517 183.678,318.005 180.416,318.005 180.333,317.761 178.376,313.03 
	171.607,313.03 169.568,317.761 169.486,318.005 166.306,318.005 "/>
<polygon fill-rule="evenodd" clip-rule="evenodd" fill="#3E3E40" points="172.831,310.178 177.071,310.178 174.951,305.286 
	172.831,310.178 "/>
<path fill-rule="evenodd" clip-rule="evenodd" fill="#FFFFFF" d="M153.909,318.005v-17.534h5.22c0.897,0,1.712,0.083,2.366,0.327
	c0.652,0.161,1.304,0.488,1.794,0.898c0.488,0.405,0.814,0.894,1.06,1.548c0.244,0.571,0.408,1.221,0.408,1.958
	c0,0.488-0.082,0.898-0.164,1.304c-0.163,0.405-0.326,0.732-0.49,1.06c-0.244,0.327-0.57,0.571-0.897,0.815
	c-0.081,0.083-0.244,0.166-0.408,0.244c0.327,0.166,0.653,0.244,0.898,0.41c0.489,0.244,0.978,0.654,1.304,1.06
	c0.409,0.405,0.653,0.815,0.815,1.304c0.164,0.571,0.245,1.06,0.245,1.631c0,0.737-0.082,1.47-0.407,2.041
	c-0.244,0.571-0.653,1.143-1.224,1.548c-0.571,0.488-1.141,0.815-1.876,1.064c-0.733,0.161-1.549,0.322-2.446,0.322H153.909
	L153.909,318.005z"/>
<path fill-rule="evenodd" clip-rule="evenodd" d="M156.926,307.732h1.304c0.653,0,1.143-0.083,1.55-0.166
	c0.408-0.078,0.733-0.244,0.979-0.488c0.326-0.166,0.49-0.41,0.571-0.654c0.164-0.322,0.244-0.649,0.244-1.06
	c0-0.732-0.244-1.221-0.57-1.548c-0.246-0.166-0.491-0.327-0.817-0.41c-0.326-0.078-0.734-0.078-1.223-0.078h-2.039V307.732
	L156.926,307.732z"/>
<path fill-rule="evenodd" clip-rule="evenodd" d="M156.926,310.583v4.57h2.936c0.571,0,0.979-0.083,1.387-0.166
	c0.407-0.083,0.733-0.244,0.979-0.405c0.244-0.166,0.408-0.41,0.49-0.654c0.081-0.327,0.163-0.654,0.163-1.06
	c0-0.41-0.082-0.732-0.163-1.06c-0.164-0.244-0.326-0.493-0.571-0.654c-0.326-0.244-0.652-0.327-1.061-0.488
	c-0.488-0.083-0.978-0.083-1.631-0.083H156.926L156.926,310.583z"/>
<polygon fill-rule="evenodd" clip-rule="evenodd" fill="#FFFFFF" points="142.734,318.005 142.734,303.328 136.536,303.328 
	136.536,300.471 151.951,300.471 151.951,303.328 145.752,303.328 145.752,318.005 142.734,318.005 "/>
<path fill-rule="evenodd" clip-rule="evenodd" fill="#FFFFFF" d="M116.962,309.197c0-0.649,0-1.221,0.162-1.792
	c0.082-0.571,0.327-1.06,0.489-1.631c0.246-0.571,0.571-1.06,0.897-1.553c0.326-0.488,0.733-0.977,1.143-1.387
	c0.488-0.405,0.897-0.815,1.467-1.138c0.49-0.327,0.979-0.571,1.55-0.815c0.57-0.249,1.142-0.41,1.713-0.493
	c0.651-0.078,1.223-0.161,1.876-0.161c0.57,0,1.223,0.083,1.793,0.161c0.571,0.083,1.224,0.327,1.795,0.493
	c0.489,0.244,1.061,0.488,1.55,0.815c0.49,0.322,0.978,0.732,1.386,1.138c0.491,0.493,0.898,0.898,1.223,1.387
	c0.327,0.493,0.654,1.064,0.817,1.553c0.245,0.571,0.407,1.138,0.571,1.714c0.08,0.566,0.163,1.221,0.163,1.792
	c0,0.654-0.083,1.221-0.163,1.797c-0.164,0.566-0.326,1.138-0.571,1.709c-0.246,0.488-0.49,1.06-0.817,1.47
	c-0.325,0.488-0.732,0.977-1.14,1.387c-0.491,0.405-0.979,0.815-1.469,1.143c-0.489,0.322-1.061,0.571-1.631,0.815
	c-0.49,0.244-1.061,0.405-1.714,0.488c-0.57,0.083-1.223,0.161-1.793,0.161c-0.653,0-1.225-0.078-1.876-0.161
	c-0.571-0.083-1.143-0.244-1.713-0.488c-0.571-0.244-1.143-0.493-1.632-0.815c-0.488-0.327-0.978-0.737-1.386-1.143
	c-0.409-0.41-0.816-0.898-1.143-1.387s-0.652-1.06-0.897-1.548c-0.244-0.571-0.407-1.143-0.489-1.714
	C116.962,310.422,116.962,309.768,116.962,309.197L116.962,309.197z"/>
<path fill-rule="evenodd" clip-rule="evenodd" d="M120.142,309.28c0,0.815,0.164,1.548,0.489,2.285
	c0.082,0.405,0.326,0.732,0.49,1.06c0.244,0.327,0.49,0.649,0.815,0.898c0.246,0.322,0.571,0.566,0.897,0.815
	c0.326,0.161,0.652,0.405,1.061,0.488c0.326,0.161,0.734,0.327,1.141,0.405c0.408,0.083,0.815,0.083,1.225,0.083
	c0.406,0,0.815,0,1.142-0.083c0.407-0.078,0.815-0.244,1.223-0.327c0.326-0.161,0.652-0.405,0.978-0.566
	c0.327-0.249,0.653-0.493,0.979-0.815c0.245-0.249,0.489-0.571,0.735-0.898c0.244-0.327,0.408-0.654,0.571-1.06
	c0.163-0.327,0.244-0.737,0.326-1.143c0.082-0.41,0.163-0.732,0.163-1.143c0-0.815-0.163-1.631-0.488-2.368
	c-0.164-0.322-0.327-0.649-0.571-1.06c-0.246-0.322-0.49-0.649-0.815-0.894c-0.246-0.327-0.571-0.571-0.898-0.815
	c-0.326-0.244-0.652-0.41-1.058-0.571c-0.327-0.166-0.735-0.244-1.143-0.327c-0.326-0.083-0.735-0.083-1.142-0.083
	c-0.409,0-0.816,0-1.225,0.083c-0.326,0.083-0.733,0.161-1.141,0.327c-0.326,0.161-0.735,0.405-1.061,0.571
	c-0.326,0.244-0.651,0.488-0.897,0.815c-0.326,0.244-0.571,0.571-0.815,0.894c-0.164,0.327-0.408,0.654-0.49,1.06
	C120.305,307.649,120.142,308.381,120.142,309.28L120.142,309.28z"/>
<path fill-rule="evenodd" clip-rule="evenodd" fill="#FFFFFF" d="M96.571,309.197c0-0.649,0.08-1.221,0.163-1.792
	c0.163-0.571,0.326-1.06,0.57-1.631s0.489-1.06,0.815-1.553c0.409-0.488,0.735-0.977,1.223-1.387
	c0.409-0.405,0.897-0.815,1.387-1.138c0.491-0.327,1.061-0.571,1.632-0.815c0.488-0.249,1.06-0.41,1.712-0.493
	c0.57-0.078,1.141-0.161,1.794-0.161c0.652,0,1.223,0.083,1.875,0.161c0.571,0.083,1.143,0.327,1.714,0.493
	c0.57,0.244,1.06,0.488,1.631,0.815c0.489,0.322,0.897,0.732,1.387,1.138c0.408,0.493,0.815,0.898,1.142,1.387
	c0.326,0.493,0.653,1.064,0.897,1.553c0.246,0.571,0.408,1.138,0.49,1.714c0.163,0.566,0.163,1.221,0.163,1.792
	c0,0.654,0,1.221-0.163,1.797c-0.082,0.566-0.326,1.138-0.49,1.709c-0.244,0.488-0.571,1.06-0.897,1.47
	c-0.326,0.488-0.734,0.977-1.142,1.387c-0.489,0.405-0.897,0.815-1.469,1.143c-0.489,0.322-0.979,0.571-1.549,0.815
	c-0.571,0.244-1.143,0.405-1.714,0.488c-0.652,0.083-1.223,0.161-1.875,0.161c-0.653,0-1.225-0.078-1.794-0.161
	c-0.653-0.083-1.224-0.244-1.794-0.488c-0.571-0.244-1.06-0.493-1.55-0.815c-0.49-0.327-0.978-0.737-1.387-1.143
	c-0.488-0.41-0.897-0.898-1.223-1.387s-0.652-1.06-0.815-1.548c-0.244-0.571-0.408-1.143-0.57-1.714
	C96.651,310.422,96.571,309.768,96.571,309.197L96.571,309.197z"/>
<path fill-rule="evenodd" clip-rule="evenodd" d="M99.752,309.28c0,0.815,0.163,1.548,0.488,2.285
	c0.164,0.405,0.327,0.732,0.571,1.06c0.164,0.327,0.49,0.649,0.734,0.898c0.327,0.322,0.571,0.566,0.898,0.815
	c0.325,0.161,0.652,0.405,1.06,0.488c0.408,0.161,0.734,0.327,1.141,0.405c0.409,0.083,0.815,0.083,1.225,0.083
	c0.408,0,0.815,0,1.223-0.083c0.408-0.078,0.734-0.244,1.141-0.327c0.327-0.161,0.734-0.405,1.061-0.566
	c0.326-0.249,0.653-0.493,0.897-0.815c0.326-0.249,0.57-0.571,0.734-0.898c0.246-0.327,0.408-0.654,0.571-1.06
	c0.163-0.327,0.326-0.737,0.408-1.143c0-0.41,0.082-0.732,0.082-1.143c0-0.815-0.164-1.631-0.49-2.368
	c-0.082-0.322-0.326-0.649-0.571-1.06c-0.164-0.322-0.49-0.649-0.734-0.894c-0.327-0.327-0.653-0.571-0.979-0.815
	c-0.326-0.244-0.652-0.41-0.979-0.571c-0.407-0.166-0.815-0.244-1.141-0.327c-0.408-0.083-0.815-0.083-1.223-0.083
	c-0.409,0-0.815,0-1.143,0.083c-0.408,0.083-0.815,0.161-1.142,0.327c-0.407,0.161-0.734,0.405-1.061,0.571
	c-0.326,0.244-0.652,0.488-0.979,0.815c-0.244,0.244-0.57,0.571-0.734,0.894c-0.244,0.327-0.407,0.654-0.571,1.06
	C99.915,307.649,99.752,308.381,99.752,309.28L99.752,309.28z"/>
<polygon fill-rule="evenodd" clip-rule="evenodd" fill="#FFFFFF" points="84.5,318.005 84.5,300.471 94.695,300.471 94.695,303.245 
	87.517,303.245 87.517,307.649 94.451,307.649 94.451,310.422 87.517,310.422 87.517,318.005 84.5,318.005 "/>
<path fill-rule="evenodd" clip-rule="evenodd" fill="#F8C700" d="M209.614,336.033c0.081,0,0.407,0,0.979,0h0.488h0.898
	c0,0.327,0.08,0.488,0.08,0.649c0,0.083,0,0.166,0,0.41c-0.08,0.161-0.08,0.571-0.08,1.387v2.036v1.226l-0.084,8.97v0.82
	c0,0.244,0.084,0.405,0.164,0.566c0.164,0.083,0.49,0.166,1.06,0.244c0.247,0.083,0.735,0.083,1.387,0.249
	c0,0.078,0.083,0.161,0.083,0.244s-0.083,0.327-0.083,0.649h-0.569c-0.407,0-1.062,0-1.877-0.078c-0.488,0-0.815,0-0.979,0
	c-0.244,0-1.061,0-2.527,0c-0.164,0.078-0.327,0.078-0.408,0.078H207.9l-0.408-0.078l-0.404,0.078l-0.735-0.078
	c-0.083,0-0.247,0-0.571,0.078c0-0.244,0-0.405,0-0.488c0-0.078,0-0.244,0-0.405c0.408-0.083,0.815-0.249,1.307-0.327
	c0.732-0.083,1.14-0.244,1.303-0.41c0.164-0.078,0.244-0.244,0.244-0.488v-0.898l0.081-0.977l-0.081-2.041v-0.488
	c0-0.083,0-0.327,0.081-0.815c0-0.244,0-0.41,0-0.654c0-0.078,0-0.405-0.081-1.06l0.081-0.732c0-0.571-0.081-0.898-0.081-1.06
	c0-0.083,0-0.244,0.081-0.327v-0.41l-0.081-0.894l0.081-0.41c0-0.161,0-0.405,0-0.732c0-0.244,0-0.654,0-1.06
	c-0.651,0.405-1.468,0.898-2.363,1.387c-0.083,0.078-0.491,0.244-1.224,0.571c-0.326-0.493-0.49-0.737-0.57-0.981
	c0.977-0.488,1.631-0.815,2.038-1.06c0.571-0.405,1.224-0.898,1.958-1.47C208.799,337.009,209.207,336.604,209.614,336.033
	L209.614,336.033z"/>
<path fill-rule="evenodd" clip-rule="evenodd" fill="#F8C700" d="M186.45,344.924c0-0.981,0.082-1.714,0.245-2.285
	c0.244-1.304,0.49-2.285,0.814-2.856c0.41-0.898,0.898-1.631,1.47-2.202s1.224-1.06,1.958-1.304
	c0.408-0.161,0.979-0.244,1.711-0.244c0.898,0,1.795,0.244,2.61,0.815s1.631,1.548,2.282,2.856c0.654,1.304,0.982,3.018,0.982,4.971
	c0,1.47-0.247,2.856-0.572,4.16c-0.244,0.815-0.57,1.553-0.979,2.202c-0.408,0.654-0.815,1.143-1.06,1.387
	c-0.491,0.41-0.979,0.815-1.55,1.06c-0.572,0.244-1.061,0.327-1.387,0.327c-1.061,0-1.878-0.083-2.366-0.244
	c-0.571-0.161-1.06-0.571-1.55-1.06c-0.569-0.488-0.979-1.143-1.387-1.875c-0.408-0.737-0.652-1.553-0.814-2.202
	C186.613,347.371,186.45,346.228,186.45,344.924L186.45,344.924z"/>
<path fill-rule="evenodd" clip-rule="evenodd" fill="#F8C700" d="M170.221,353.894c-0.163-0.166-0.245-0.327-0.245-0.488
	c0-0.083,0.082-0.244,0.164-0.327c0-0.083,0.326-0.161,0.815-0.327c0.979-0.41,1.876-0.815,2.528-1.304
	c0.735-0.488,1.305-1.143,1.795-1.797c0.489-0.732,0.897-1.548,1.061-2.363c0.244-0.815,0.326-1.47,0.326-1.958
	c0-0.161,0.08-0.488,0.163-1.143c0.082-0.405,0.082-0.977,0.082-1.631c0-2.285-0.327-3.833-0.897-4.648
	c-0.49-0.654-0.98-0.898-1.632-0.898s-1.143,0.244-1.549,0.815c-0.653,0.737-0.897,1.714-0.897,3.101
	c0,0.815,0.082,1.631,0.162,2.363c0.082,0.493,0.244,0.898,0.49,1.309c0.164,0.327,0.327,0.488,0.49,0.571
	c0.407,0.161,0.734,0.244,1.143,0.244c0.244,0,0.489-0.083,0.733-0.083l0.244-0.083c0.082,0,0.164,0.083,0.245,0.166
	c0.164,0.078,0.164,0.244,0.164,0.405c0,0.41-0.164,0.571-0.409,0.654c-0.571,0.244-1.305,0.327-1.958,0.327
	c-0.488,0-0.732,0-0.897,0c-0.897-0.327-1.467-0.571-1.629-0.737c-0.571-0.327-0.979-0.732-1.306-1.138
	c-0.244-0.327-0.488-0.82-0.652-1.309c-0.164-0.649-0.246-1.304-0.246-1.958c0-1.06,0.246-2.036,0.735-2.935
	c0.571-0.898,1.223-1.548,2.12-2.041c0.897-0.405,1.875-0.649,2.855-0.649c1.794,0,3.343,0.649,4.566,1.958
	c1.223,1.221,1.713,3.096,1.713,5.547c0,1.138-0.246,2.446-0.653,3.833c-0.162,0.322-0.488,0.977-1.06,1.875
	s-1.305,1.792-2.283,2.529c-0.98,0.732-2.04,1.304-3.101,1.631c-1.061,0.405-1.958,0.571-2.69,0.571
	C170.629,353.977,170.465,353.977,170.221,353.894L170.221,353.894z"/>
<path fill-rule="evenodd" clip-rule="evenodd" fill="#F8C700" d="M157.498,336.033c0.081,0,0.408,0,0.978,0h0.489h0.897
	c0,0.327,0,0.488,0,0.649c0,0.083,0,0.166,0,0.41c0,0.161,0,0.571,0,1.387v2.036v1.226l-0.163,8.97v0.82
	c0,0.244,0.081,0.405,0.244,0.566c0.164,0.083,0.49,0.166,1.061,0.244c0.244,0.083,0.651,0.083,1.387,0.249c0,0.078,0,0.161,0,0.244
	s0,0.327,0,0.649h-0.653c-0.408,0-0.979,0-1.794-0.078c-0.49,0-0.815,0-0.979,0c-0.244,0-1.142,0-2.528,0
	c-0.162,0.078-0.326,0.078-0.407,0.078h-0.246l-0.49-0.078l-0.326,0.078l-0.734-0.078c-0.082,0-0.326,0-0.571,0.078
	c0-0.244-0.08-0.405-0.08-0.488c0-0.078,0.08-0.244,0.08-0.405c0.326-0.083,0.817-0.249,1.305-0.327
	c0.735-0.083,1.143-0.244,1.306-0.41c0.162-0.078,0.244-0.244,0.244-0.488l-0.082-0.898l0.082-0.977v-2.041v-0.488
	c0-0.083,0-0.327,0-0.815c0-0.244,0.082-0.41,0.082-0.654c0-0.078-0.082-0.405-0.082-1.06l0.082-0.732
	c-0.082-0.571-0.082-0.898-0.082-1.06c0-0.083,0-0.244,0-0.327l0.082-0.41l-0.082-0.894l0.082-0.41c0-0.161,0-0.405,0-0.732
	c0-0.244,0-0.654,0-1.06c-0.735,0.405-1.469,0.898-2.366,1.387c-0.082,0.078-0.489,0.244-1.305,0.571
	c-0.244-0.493-0.489-0.737-0.571-0.981c1.061-0.488,1.713-0.815,2.039-1.06c0.653-0.405,1.306-0.898,1.958-1.47
	C156.681,337.009,157.008,336.604,157.498,336.033L157.498,336.033z"/>
<path fill-rule="evenodd" clip-rule="evenodd" fill="#D42D3F" d="M190.203,346.716c0,1.958,0,3.262,0.163,3.916
	c0.161,0.732,0.407,1.221,0.732,1.548c0.41,0.327,0.817,0.488,1.224,0.488c0.41,0,0.817-0.078,1.143-0.327
	c0.246-0.161,0.57-0.488,0.734-0.977c0.244-0.488,0.408-1.143,0.488-2.119c0.083-1.631,0.164-2.773,0.164-3.511v-1.709v-1.875
	c0-0.898-0.081-1.714-0.244-2.446c-0.081-0.82-0.244-1.309-0.488-1.636c-0.244-0.322-0.491-0.571-0.816-0.732
	c-0.326-0.083-0.654-0.161-0.898-0.161c-0.324,0-0.734,0.161-1.143,0.488c-0.407,0.327-0.734,0.898-0.896,1.792
	c-0.163,0.815-0.244,2.285-0.244,4.326v0.977C190.122,345.657,190.203,346.306,190.203,346.716L190.203,346.716z"/>
<polygon fill-rule="evenodd" clip-rule="evenodd" fill="#FFFFFF" points="223.97,51.955 142.081,51.955 92.818,101.789 
	92.818,183.757 143.386,235.305 223.563,235.305 274.048,183.757 274.048,101.789 224.865,51.955 223.97,51.955 "/>
<path fill-rule="evenodd" clip-rule="evenodd" fill="#D42D3F" d="M164.919,114.757c0-9.87,7.748-17.943,17.372-18.515V54.076
	h-39.313l-47.958,48.61v80.174l49.263,50.243h38.008V133.27C172.667,132.699,164.919,124.625,164.919,114.757L164.919,114.757z"/>
<path fill-rule="evenodd" clip-rule="evenodd" d="M223.97,54.076h-39.477v42.167c9.786,0.571,17.452,8.645,17.452,18.515
	c0,9.868-7.666,17.941-17.452,18.513v99.833h38.171l49.262-50.243v-80.174L223.97,54.076L223.97,54.076z"/>
<path fill-rule="evenodd" clip-rule="evenodd" fill="#FFFFFF" d="M188.572,93.143l0.488-6.444c0,0,9.623-0.49,18.107,6.526
	c0,0,6.851-20.064,16.475-24.306c0,0,0.652,2.61,1.307,2.772c0.651,0.164,2.934-2.446,3.588-2.284
	c0.652,0.164-0.817,8.973,19.573,16.64l-1.14,5.383c0,0-24.959-1.957-24.959,12.886c0,6.688,9.624,18.27,11.255,20.391
	c1.631,2.122,12.073,10.603,13.54,33.196c0,0,3.75-2.691,3.75-9.869s-4.24-21.532-4.24-26.752s-0.816-19.248,13.376-19.248v7.177
	c0,0-4.812-0.164-5.384,6.198c-0.488,5.384,6.526,29.036,3.262,38.008c-2.689,7.34-4.076,10.195-9.297,14.272
	c-5.219,4.079-21.857,17.292-5.871,29.037l-14.846,26.914c0,0-8.643,3.101-9.297,3.101c-0.652,0-2.447,0.327-1.141-1.143
	c1.304-1.47,12.723-12.071,12.723-23.653c0-11.581-16.803-15.17-16.803-32.624c0-11.582,10.115-18.514,10.115-18.514
	s-1.795-4.324-3.589-5.709c-1.794-1.467-11.745-7.34-13.213-10.93c0,0-9.788,7.993-17.62,8.482c0,0-1.955-3.424-2.119-5.873
	c0,0,19.576-2.527,19.168-23C205.454,96.65,188.572,93.143,188.572,93.143L188.572,93.143z"/>
<path fill-rule="evenodd" clip-rule="evenodd" fill="#FFFFFF" d="M178.296,93.143l-0.491-6.444c0,0-9.542-0.49-18.025,6.526
	c0,0-6.851-20.064-16.475-24.306c0,0-0.653,2.61-1.305,2.772c-0.653,0.164-2.938-2.446-3.589-2.284
	c-0.653,0.164,0.815,8.973-19.575,16.64l1.143,5.383c0,0,24.957-1.957,24.957,12.886c0,6.688-9.624,18.27-11.255,20.391
	c-1.632,2.122-12.071,10.603-13.54,33.196c0,0-3.751-2.691-3.751-9.869s4.24-21.532,4.24-26.752s0.817-19.248-13.375-19.248v7.177
	c0,0,4.812-0.164,5.383,6.198c0.488,5.384-6.526,29.036-3.263,38.008c2.692,7.34,4.077,10.195,9.298,14.272
	c5.22,4.079,21.858,17.292,5.872,29.037l14.844,26.914c0,0,8.646,3.101,9.299,3.101c0.652,0,2.446,0.327,1.141-1.143
	c-1.305-1.47-12.723-12.071-12.723-23.653c0-11.581,16.802-15.17,16.802-32.624c0-11.582-10.114-18.514-10.114-18.514
	s1.795-4.324,3.589-5.709c1.793-1.467,11.745-7.34,13.213-10.93c0,0,9.788,7.993,17.536,8.482c0,0,1.957-3.424,2.119-5.873
	c0,0-19.492-2.527-19.167-23C161.411,96.65,178.296,93.143,178.296,93.143L178.296,93.143z"/>
<path fill-rule="evenodd" clip-rule="evenodd" fill="#FFFFFF" d="M147.791,197.214l15.007,21.777l8.972,1.469
	c0,0,1.55,0,0.653-1.305c-0.815-1.306-10.929-12.969-11.909-15.905c-0.978-2.937-3.262-5.465,0.735-11.011
	c3.996-5.545,11.744-10.767,11.744-21.859c0-11.091-9.46-19.982-21.858-19.819c-5.545,0.164-1.061,3.507-0.571,4.159
	c1.224,1.551,4.568,6.2,5.383,13.296c0.815,7.748-3.1,12.479-3.1,13.131c0,1.876,2.855,2.201,2.855,6.852
	C155.703,193.463,147.791,197.214,147.791,197.214L147.791,197.214z"/>
<path fill-rule="evenodd" clip-rule="evenodd" fill="#FFFFFF" d="M219.158,197.214l-15.008,21.777l-9.055,1.469
	c0,0-1.468,0-0.652-1.305c0.898-1.306,11.011-12.969,11.99-15.905c0.979-2.937,3.262-5.465-0.732-11.011
	c-4.08-5.545-11.746-10.767-11.746-21.859c0-11.091,9.461-19.982,21.857-19.819c5.547,0.164,1.061,3.507,0.488,4.159
	c-1.14,1.551-4.564,6.2-5.3,13.296c-0.815,7.748,3.018,12.479,3.018,13.131c0,1.876-2.773,2.201-2.773,6.852
	C211.245,193.463,219.158,197.214,219.158,197.214L219.158,197.214z"/>
<path fill-rule="evenodd" clip-rule="evenodd" fill="#FFFFFF" d="M325.757,263.767c-1.631-1.709-4.241-2.69-6.606-2.69
	c-2.446,0-5.464,0.898-5.464,3.833c0,5.791,14.517,5.708,14.517,13.54c0,4.487-4.729,8.726-11.336,8.726
	c-2.529,0-5.139-0.327-7.585-1.221l-1.224-5.303c2.527,2.119,5.955,3.506,9.297,3.506c2.366,0,6.035-1.465,6.035-4.404
	c0-6.606-14.516-5.381-14.516-14.355c0-5.298,5.463-7.339,10.603-7.339c2.119,0,4.241,0.244,6.279,0.898V263.767L325.757,263.767z"
	/>
<path fill-rule="evenodd" clip-rule="evenodd" fill="#FFFFFF" d="M301.206,264.666c0-1.958,0.247-5.054-1.875-5.791v-0.161h7.993
	v0.161c-2.119,0.737-1.875,3.916-1.875,5.791v15.903c0,1.958-0.244,4.976,1.875,5.791v0.166h-7.993v-0.166
	c2.122-0.732,1.875-3.833,1.875-5.791V264.666L301.206,264.666z"/>
<path fill-rule="evenodd" clip-rule="evenodd" fill="#FFFFFF" d="M276.902,276.086l-2.203,5.952
	c-0.896,2.363-1.223,3.589,0.816,4.321v0.166h-7.75v-0.166c2.449-1.221,3.182-3.589,4.08-5.952l7.095-17.617
	c0.571-1.553,1.387-3.345-0.651-3.916v-0.161h6.687l8.728,21.694c0.979,2.363,1.795,4.731,4.16,5.952v0.166h-8.645v-0.166
	c2.039-0.898,1.711-1.387,0.568-4.321l-2.282-5.952H276.902L276.902,276.086z"/>
<polygon fill-rule="evenodd" clip-rule="evenodd" fill="#D42D3F" points="282.205,262.302 277.961,272.986 286.281,272.986 
	282.205,262.302 "/>
<path fill-rule="evenodd" clip-rule="evenodd" fill="#FFFFFF" d="M244.849,281.062c0,2.363,0,3.994,2.202,5.298v0.166h-7.502v-0.166
	c2.282-1.304,2.282-2.935,2.282-5.298v-16.885c0-2.368,0-4.077-2.202-5.303v-0.161h6.199v0.078c0.163,0.493,0.324,0.654,0.57,1.06
	l0.652,0.82l15.415,19.492v-15.986c0-2.368,0.081-4.077-2.202-5.303v-0.161h7.422v0.161c-2.202,1.226-2.202,2.935-2.202,5.303
	v23.652c-2.937-0.981-4.241-2.368-6.118-4.814l-14.517-18.35V281.062L244.849,281.062z"/>
<path fill-rule="evenodd" clip-rule="evenodd" fill="#FFFFFF" d="M215.486,281.062c0,2.363,0,3.994,2.201,5.298v0.166h-7.422v-0.166
	c2.203-1.304,2.203-2.935,2.203-5.298v-16.885c0-2.368,0-4.077-2.203-5.303v-0.161h6.199v0.078c0.164,0.493,0.327,0.654,0.571,1.06
	l0.651,0.82l15.416,19.492v-15.986c0-2.368,0.082-4.077-2.203-5.303v-0.161h7.422v0.161c-2.119,1.226-2.119,2.935-2.119,5.303
	v23.652c-3.018-0.981-4.323-2.368-6.198-4.814l-14.519-18.35V281.062L215.486,281.062z"/>
<path fill-rule="evenodd" clip-rule="evenodd" fill="#FFFFFF" d="M195.913,282.937l5.381,0.571c2.773,0.244,5.71-0.654,7.829-2.529
	h0.084l-1.878,5.547h-17.614v-0.166c2.119-0.732,1.875-3.833,1.875-5.791v-15.903c0-1.958,0.244-5.054-1.875-5.791v-0.161h13.537
	c0.734,0,1.387,0.078,1.958-0.244h0.163v4.976h-0.163c-1.304-1.553-3.018-1.714-4.976-1.714c-1.467,0-2.938,0.078-4.321,0.327v7.827
	h5.056c0.652,0,1.305,0,1.795-0.244h0.161v4.487h-0.161c-0.652-1.226-2.446-1.143-3.752-1.143h-3.099V282.937L195.913,282.937z"/>
<path fill-rule="evenodd" clip-rule="evenodd" fill="#FFFFFF" d="M176.256,258.713c5.628,0,8.646,2.935,8.646,6.768
	c0,3.75-3.182,6.689-6.605,7.505l6.035,7.583c1.793,2.202,4.401,4.404,6.851,5.957h-3.916c-2.201,0-3.669-0.571-4.893-2.124
	l-5.058-6.362l-3.915-5.952c3.426-0.488,7.258-2.119,7.258-6.035c0-3.101-2.527-4.814-5.382-4.731
	c-0.979,0.083-1.876,0.166-2.854,0.327v18.921c0,1.958-0.245,5.059,1.875,5.791v0.166h-8.073v-0.166
	c2.12-0.732,1.876-3.833,1.876-5.791v-15.903c0-1.958,0.244-5.054-1.876-5.791v-0.161H176.256L176.256,258.713z"/>
<path fill-rule="evenodd" clip-rule="evenodd" fill="#FFFFFF" d="M140.858,282.937l5.383,0.571c2.772,0.244,5.709-0.654,7.83-2.529
	h0.163l-1.958,5.547h-17.616v-0.166c2.202-0.732,1.957-3.833,1.957-5.791v-15.903c0-1.958,0.246-5.054-1.957-5.791v-0.161h13.538
	c0.735,0,1.469,0.078,1.958-0.244h0.164v4.976h-0.164c-1.305-1.553-3.018-1.714-4.976-1.714c-1.467,0-2.936,0.078-4.322,0.327v7.827
	h5.057c0.652,0,1.385,0,1.875-0.244h0.082v4.487h-0.082c-0.652-1.226-2.446-1.143-3.751-1.143h-3.181V282.937L140.858,282.937z"/>
<path fill-rule="evenodd" clip-rule="evenodd" fill="#FFFFFF" d="M108.642,264.504c0-1.958,0.245-5.059-1.875-5.63v-0.161h10.357
	c9.624,0,15.659,5.22,15.659,13.618c0,8.32-6.443,14.194-15.903,14.194h-10.113v-0.166c2.12-1.387,1.875-3.423,1.875-5.952V264.504
	L108.642,264.504z"/>
<path fill-rule="evenodd" clip-rule="evenodd" fill="#FFFFFF" d="M84.419,276.086l-2.202,5.952
	c-0.898,2.363-1.225,3.589,0.814,4.321v0.166h-7.748v-0.166c2.446-1.221,3.181-3.589,4.078-5.952l7.015-17.617
	c0.651-1.553,1.467-3.345-0.57-3.916v-0.161h6.605l8.81,21.694c0.978,2.363,1.711,4.731,4.159,5.952v0.166h-8.646v-0.166
	c2.039-0.898,1.712-1.387,0.57-4.321l-2.284-5.952H84.419L84.419,276.086z"/>
<polygon fill-rule="evenodd" clip-rule="evenodd" points="89.638,262.302 85.479,272.986 93.798,272.986 89.638,262.302 "/>
<path fill-rule="evenodd" clip-rule="evenodd" fill="#FFFFFF" d="M70.798,281.062c0,2.363,0,3.994,2.201,5.298v0.166H64.68v-0.166
	c2.121-0.815,1.794-3.833,1.794-5.791v-18.838h-3.671c-1.794,0-3.751,0.488-5.056,1.714h-0.082l1.469-5.059h0.08
	c0.571,0.244,1.061,0.244,1.632,0.327h16.802c0.734,0,1.387,0,1.957-0.327h0.164l-1.387,5.059H78.22
	c-0.491-1.47-2.202-1.714-3.589-1.714h-3.833V281.062L70.798,281.062z"/>
<path fill-rule="evenodd" clip-rule="evenodd" fill="#FFFFFF" d="M56.361,263.767c-1.631-1.709-4.242-2.69-6.606-2.69
	c-2.446,0-5.465,0.898-5.465,3.833c0,5.791,14.519,5.708,14.519,13.54c0,4.487-4.731,8.726-11.338,8.726
	c-2.528,0-5.138-0.327-7.504-1.221l-1.223-5.303c2.446,2.119,5.954,3.506,9.216,3.506c2.448,0,6.037-1.465,6.037-4.404
	c0-6.606-14.519-5.381-14.519-14.355c0-5.298,5.465-7.339,10.603-7.339c2.122,0,4.242,0.244,6.281,0.898V263.767L56.361,263.767z"/>
<path fill-rule="evenodd" clip-rule="evenodd" d="M112.965,283.181c0.978,0.244,2.039,0.327,3.018,0.327
	c6.362,0,11.99-3.345,11.99-10.605c0-7.422-4.16-11.172-11.256-11.172c-1.223,0-2.528,0.161-3.751,0.488V283.181L112.965,283.181z"
	/>
</svg>
